<?xml version="1.0" encoding="UTF-8"?> <svg xmlns="http://www.w3.org/2000/svg" width="365" height="287" viewBox="0 0 365 287" fill="none"> <g clip-path="url(#clip0)"> <g clip-path="url(#clip1)"> <path d="M183.366 287.504C284.371 287.504 366.252 282.71 366.252 276.796C366.252 270.881 284.371 266.087 183.366 266.087C82.3605 266.087 0.479492 270.881 0.479492 276.796C0.479492 282.71 82.3605 287.504 183.366 287.504Z" fill="#F5F5F5"></path> <path d="M228.143 -0.143462H205.505C204.767 -0.127734 204.057 0.135122 203.486 0.603187C202.915 1.07125 202.516 1.71758 202.354 2.4391L202.203 3.14859C201.812 4.90878 200.843 6.48603 199.45 7.62695C198.058 8.76787 196.323 9.40622 194.525 9.43944H173.019C171.313 9.47763 169.662 8.8376 168.425 7.65903C167.188 6.48047 166.466 4.85904 166.416 3.14859V2.4391C166.399 1.7382 166.105 1.07278 165.6 0.58868C165.094 0.104581 164.418 -0.158701 163.719 -0.143462H141.081C137.363 -0.0771505 133.798 1.35334 131.06 3.87746C128.323 6.40158 126.602 9.84431 126.225 13.5545L108.058 222.183C107.866 223.928 108.047 225.693 108.588 227.362C109.13 229.031 110.02 230.565 111.199 231.862C112.378 233.159 113.818 234.189 115.425 234.883C117.032 235.578 118.768 235.922 120.518 235.891H207.552C211.27 235.822 214.835 234.39 217.573 231.864C220.31 229.338 222.03 225.895 222.408 222.183L240.612 13.5545C240.803 11.81 240.621 10.0449 240.078 8.37658C239.535 6.70827 238.644 5.17508 237.464 3.87908C236.285 2.58308 234.843 1.55403 233.236 0.860427C231.628 0.166828 229.892 -0.175397 228.143 -0.143462V-0.143462Z" fill="#ff8562"></path> <path opacity="0.7" d="M228.143 -0.143462H205.505C204.767 -0.127734 204.057 0.135122 203.486 0.603187C202.915 1.07125 202.516 1.71758 202.354 2.4391L202.203 3.14859C201.812 4.90878 200.843 6.48603 199.45 7.62695C198.058 8.76787 196.323 9.40622 194.525 9.43944H173.019C171.313 9.47763 169.662 8.8376 168.425 7.65903C167.188 6.48047 166.466 4.85904 166.416 3.14859V2.4391C166.399 1.7382 166.105 1.07278 165.6 0.58868C165.094 0.104581 164.418 -0.158701 163.719 -0.143462H141.081C137.363 -0.0771505 133.798 1.35334 131.06 3.87746C128.323 6.40158 126.602 9.84431 126.225 13.5545L108.058 222.183C107.866 223.928 108.047 225.693 108.588 227.362C109.13 229.031 110.02 230.565 111.199 231.862C112.378 233.159 113.818 234.189 115.425 234.883C117.032 235.578 118.768 235.922 120.518 235.891H207.552C211.27 235.822 214.835 234.39 217.573 231.864C220.31 229.338 222.03 225.895 222.408 222.183L240.612 13.5545C240.803 11.81 240.621 10.0449 240.078 8.37658C239.535 6.70827 238.644 5.17508 237.464 3.87908C236.285 2.58308 234.843 1.55403 233.236 0.860427C231.628 0.166828 229.892 -0.175397 228.143 -0.143462V-0.143462Z" fill="white"></path> <path d="M219.323 95.8178H173.104C172.715 95.8241 172.33 95.7474 171.973 95.5928C171.616 95.4383 171.295 95.2095 171.033 94.9215C170.771 94.6335 170.573 94.2929 170.452 93.9223C170.331 93.5517 170.29 93.1595 170.331 92.7717L173.812 52.8604C173.895 52.0353 174.277 51.2695 174.885 50.7081C175.494 50.1466 176.286 49.8286 177.113 49.8143H223.332C223.721 49.8065 224.108 49.8821 224.466 50.0361C224.823 50.1901 225.144 50.419 225.407 50.7073C225.669 50.9957 225.867 51.3369 225.988 51.7082C226.108 52.0795 226.148 52.4723 226.105 52.8604L222.625 92.7717C222.54 93.596 222.157 94.3606 221.549 94.9217C220.941 95.4827 220.149 95.8014 219.323 95.8178Z" fill="white"></path> <path d="M203.948 220.613H126.602C125.635 220.631 124.676 220.442 123.788 220.059C122.9 219.676 122.104 219.107 121.452 218.391C120.8 217.675 120.308 216.828 120.009 215.906C119.71 214.984 119.61 214.009 119.716 213.045V213.045C119.925 210.996 120.876 209.095 122.388 207.7C123.9 206.306 125.868 205.515 127.922 205.477H205.269C206.235 205.459 207.194 205.648 208.082 206.031C208.97 206.414 209.767 206.983 210.418 207.699C211.07 208.415 211.562 209.263 211.861 210.184C212.16 211.106 212.26 212.082 212.154 213.045V213.045C211.947 215.095 210.997 216.998 209.485 218.392C207.972 219.787 206.002 220.577 203.948 220.613V220.613Z" fill="white"></path> <path d="M210.107 38.8408H139.146C138.602 38.8572 138.061 38.7554 137.56 38.5424C137.059 38.3293 136.61 38.0102 136.244 37.6067C135.877 37.2032 135.602 36.725 135.437 36.2048C135.272 35.6847 135.221 35.1349 135.288 34.5933L135.864 27.9713C135.983 26.8233 136.517 25.7587 137.365 24.9781C138.213 24.1975 139.316 23.7548 140.467 23.7333H211.427C211.969 23.7235 212.507 23.8294 213.004 24.0438C213.502 24.2583 213.949 24.5765 214.314 24.9773C214.68 25.3781 214.957 25.8524 215.126 26.3686C215.295 26.8847 215.352 27.4311 215.295 27.9713L214.71 34.5933C214.593 35.743 214.06 36.8099 213.211 37.5924C212.363 38.375 211.259 38.819 210.107 38.8408V38.8408Z" fill="white"></path> <path d="M224.539 27.7444C224.507 28.0648 224.358 28.3623 224.122 28.5802C223.885 28.7982 223.577 28.9215 223.256 28.9269C223.105 28.9291 222.956 28.8991 222.817 28.839C222.679 28.779 222.555 28.6901 222.453 28.5783C222.352 28.4666 222.275 28.3344 222.228 28.1907C222.181 28.0469 222.165 27.8948 222.181 27.7444C222.213 27.4248 222.362 27.1285 222.599 26.9121C222.835 26.6956 223.143 26.5743 223.464 26.5713C223.614 26.5678 223.763 26.5964 223.902 26.6555C224.04 26.7145 224.165 26.8024 224.266 26.9135C224.368 27.0245 224.445 27.1561 224.492 27.2994C224.539 27.4427 224.555 27.5944 224.539 27.7444V27.7444Z" fill="white"></path> <path d="M224.229 31.2822C224.199 31.6019 224.052 31.8992 223.817 32.1173C223.582 32.3355 223.275 32.4591 222.955 32.4647C222.805 32.4669 222.655 32.437 222.517 32.3769C222.378 32.3168 222.254 32.2279 222.152 32.1162C222.051 32.0044 221.974 31.8723 221.927 31.7285C221.88 31.5847 221.864 31.4326 221.88 31.2822C221.91 30.9626 222.057 30.6652 222.292 30.4471C222.526 30.2289 222.833 30.1053 223.153 30.0997C223.304 30.0975 223.454 30.1275 223.592 30.1875C223.731 30.2476 223.855 30.3365 223.956 30.4483C224.058 30.56 224.135 30.6922 224.182 30.8359C224.229 30.9797 224.245 31.1318 224.229 31.2822V31.2822Z" fill="white"></path> <path d="M223.927 34.811C223.894 35.1315 223.746 35.4289 223.509 35.6469C223.273 35.8648 222.965 35.9882 222.644 35.9935C222.493 35.9957 222.343 35.9658 222.205 35.9057C222.067 35.8456 221.942 35.7567 221.841 35.645C221.739 35.5332 221.662 35.4011 221.615 35.2573C221.568 35.1135 221.553 34.9614 221.569 34.811C221.601 34.4905 221.749 34.1931 221.986 33.9752C222.222 33.7572 222.53 33.6338 222.851 33.6285C223.002 33.6263 223.152 33.6563 223.29 33.7164C223.429 33.7764 223.553 33.8653 223.654 33.9771C223.756 34.0888 223.833 34.221 223.88 34.3647C223.927 34.5085 223.943 34.6606 223.927 34.811V34.811Z" fill="white"></path> <path d="M213.579 161.659H127.243C126.854 161.667 126.467 161.591 126.11 161.437C125.752 161.283 125.431 161.054 125.168 160.766C124.906 160.478 124.708 160.136 124.587 159.765C124.467 159.394 124.427 159.001 124.47 158.613L128.488 113.064C128.571 112.239 128.953 111.473 129.562 110.911C130.17 110.35 130.963 110.032 131.789 110.017H218.097C218.485 110.011 218.871 110.088 219.227 110.242C219.584 110.397 219.903 110.626 220.165 110.914C220.426 111.202 220.624 111.543 220.744 111.914C220.864 112.284 220.903 112.676 220.86 113.064L216.889 158.613C216.806 159.44 216.423 160.207 215.812 160.768C215.202 161.33 214.407 161.647 213.579 161.659Z" fill="white"></path> <path d="M150.994 171.176H124.112C124.017 171.177 123.924 171.159 123.837 171.122C123.751 171.085 123.673 171.029 123.61 170.959C123.546 170.889 123.498 170.807 123.469 170.717C123.44 170.627 123.431 170.532 123.442 170.438V170.438C123.46 170.236 123.552 170.048 123.7 169.91C123.848 169.772 124.042 169.694 124.244 169.69H151.126C151.221 169.688 151.316 169.707 151.403 169.745C151.49 169.782 151.569 169.839 151.632 169.91C151.696 169.981 151.743 170.065 151.772 170.156C151.8 170.247 151.808 170.343 151.796 170.438C151.775 170.638 151.682 170.823 151.534 170.959C151.387 171.095 151.195 171.172 150.994 171.176V171.176Z" fill="white"></path> <path d="M184.592 171.176H155.738C155.643 171.179 155.549 171.162 155.461 171.125C155.373 171.088 155.294 171.033 155.23 170.963C155.165 170.893 155.117 170.81 155.087 170.719C155.058 170.628 155.048 170.532 155.059 170.438C155.078 170.236 155.17 170.048 155.318 169.91C155.465 169.772 155.659 169.694 155.861 169.69H184.724C184.819 169.688 184.914 169.707 185.001 169.745C185.089 169.782 185.167 169.839 185.23 169.91C185.294 169.981 185.341 170.065 185.37 170.156C185.398 170.247 185.406 170.343 185.394 170.438C185.373 170.638 185.28 170.823 185.133 170.959C184.985 171.095 184.793 171.172 184.592 171.176V171.176Z" fill="white"></path> <path d="M141.694 177.75H123.546C123.45 177.752 123.355 177.734 123.268 177.696C123.18 177.658 123.101 177.602 123.037 177.531C122.973 177.46 122.924 177.377 122.895 177.286C122.865 177.194 122.856 177.098 122.867 177.003V177.003C122.887 176.802 122.98 176.615 123.127 176.478C123.275 176.34 123.467 176.261 123.668 176.256H141.854C141.949 176.255 142.043 176.275 142.13 176.313C142.217 176.351 142.295 176.408 142.359 176.478C142.423 176.548 142.472 176.632 142.502 176.722C142.532 176.812 142.543 176.908 142.533 177.003V177.003C142.512 177.21 142.414 177.402 142.259 177.541C142.103 177.679 141.902 177.754 141.694 177.75V177.75Z" fill="white"></path> <path d="M176.255 177.75H146.468C146.372 177.752 146.277 177.734 146.19 177.696C146.102 177.658 146.023 177.602 145.959 177.531C145.895 177.46 145.846 177.377 145.817 177.285C145.787 177.194 145.778 177.098 145.788 177.003V177.003C145.809 176.8 145.903 176.613 146.053 176.475C146.202 176.337 146.397 176.259 146.6 176.256H176.378C176.473 176.254 176.568 176.272 176.656 176.31C176.744 176.348 176.822 176.404 176.887 176.475C176.951 176.545 177 176.629 177.029 176.72C177.058 176.811 177.068 176.908 177.057 177.003V177.003C177.039 177.205 176.947 177.392 176.799 177.53C176.651 177.668 176.457 177.746 176.255 177.75Z" fill="white"></path> <path d="M171.444 184.316H122.971C122.876 184.319 122.781 184.302 122.693 184.265C122.606 184.228 122.527 184.173 122.462 184.103C122.398 184.033 122.349 183.95 122.32 183.859C122.29 183.768 122.281 183.672 122.291 183.578V183.578C122.312 183.375 122.406 183.187 122.556 183.05C122.705 182.912 122.9 182.834 123.103 182.83H171.576C171.671 182.83 171.765 182.849 171.852 182.888C171.939 182.926 172.017 182.982 172.081 183.053C172.145 183.123 172.194 183.206 172.224 183.297C172.254 183.387 172.265 183.483 172.255 183.578V183.578C172.232 183.778 172.138 183.964 171.988 184.1C171.839 184.236 171.646 184.312 171.444 184.316V184.316Z" fill="white"></path> <path d="M179.424 184.315H176.226C176.131 184.319 176.037 184.302 175.949 184.265C175.861 184.228 175.783 184.173 175.718 184.103C175.654 184.033 175.605 183.95 175.575 183.859C175.546 183.768 175.536 183.672 175.547 183.578V183.578C175.566 183.376 175.658 183.188 175.806 183.05C175.954 182.912 176.147 182.834 176.349 182.83H179.556C179.651 182.828 179.746 182.847 179.833 182.884C179.92 182.922 179.999 182.979 180.062 183.05C180.126 183.121 180.173 183.205 180.202 183.296C180.23 183.387 180.238 183.483 180.226 183.578C180.205 183.778 180.112 183.963 179.964 184.099C179.817 184.235 179.625 184.312 179.424 184.315V184.315Z" fill="white"></path> <path d="M145.023 190.89H122.385C122.29 190.89 122.196 190.871 122.109 190.832C122.022 190.794 121.944 190.738 121.88 190.668C121.816 190.597 121.768 190.514 121.738 190.424C121.708 190.333 121.697 190.237 121.706 190.142V190.142C121.727 189.94 121.821 189.752 121.971 189.614C122.12 189.477 122.315 189.399 122.518 189.395H145.156C145.251 189.393 145.346 189.412 145.433 189.45C145.521 189.487 145.6 189.543 145.664 189.614C145.729 189.685 145.777 189.769 145.806 189.86C145.836 189.951 145.845 190.047 145.835 190.142V190.142C145.814 190.345 145.72 190.533 145.57 190.671C145.421 190.808 145.226 190.886 145.023 190.89V190.89Z" fill="white"></path> <path d="M177.953 190.89H149.768C149.673 190.89 149.579 190.871 149.492 190.832C149.405 190.794 149.327 190.738 149.263 190.668C149.199 190.597 149.151 190.514 149.121 190.424C149.091 190.333 149.08 190.237 149.089 190.142V190.142C149.11 189.94 149.204 189.752 149.353 189.614C149.503 189.477 149.697 189.399 149.9 189.395H178.075C178.171 189.393 178.265 189.412 178.353 189.45C178.441 189.487 178.52 189.543 178.584 189.614C178.648 189.685 178.697 189.769 178.726 189.86C178.755 189.951 178.765 190.047 178.754 190.142V190.142C178.734 190.343 178.641 190.53 178.494 190.667C178.346 190.805 178.154 190.884 177.953 190.89Z" fill="white"></path> <path d="M149.693 197.455H121.82C121.725 197.457 121.63 197.439 121.543 197.401C121.455 197.363 121.377 197.307 121.314 197.236C121.25 197.165 121.203 197.081 121.174 196.99C121.146 196.899 121.138 196.802 121.15 196.708V196.708C121.171 196.508 121.264 196.322 121.411 196.186C121.559 196.05 121.751 195.973 121.952 195.97H149.815C149.91 195.967 150.005 195.984 150.093 196.02C150.18 196.057 150.259 196.112 150.324 196.183C150.388 196.253 150.437 196.336 150.466 196.426C150.496 196.517 150.505 196.613 150.494 196.708V196.708C150.476 196.909 150.384 197.097 150.236 197.235C150.088 197.373 149.895 197.451 149.693 197.455Z" fill="white"></path> <path d="M176.877 197.455H154.428C154.333 197.457 154.239 197.439 154.151 197.401C154.064 197.363 153.986 197.307 153.922 197.236C153.859 197.165 153.811 197.081 153.783 196.99C153.754 196.899 153.746 196.802 153.758 196.708V196.708C153.779 196.508 153.872 196.322 154.02 196.186C154.168 196.05 154.36 195.973 154.56 195.97H177.01C177.105 195.967 177.199 195.984 177.287 196.02C177.375 196.057 177.453 196.112 177.518 196.183C177.582 196.253 177.631 196.336 177.661 196.426C177.69 196.517 177.7 196.613 177.689 196.708V196.708C177.668 196.91 177.574 197.098 177.424 197.236C177.275 197.374 177.08 197.452 176.877 197.455V197.455Z" fill="white"></path> <path d="M218.229 92.034C218.147 92.1285 218.047 92.2057 217.935 92.2611C217.823 92.3166 217.701 92.3493 217.577 92.3572C217.452 92.3651 217.327 92.3481 217.209 92.3073C217.091 92.2664 216.982 92.2025 216.889 92.1191L178.282 55.1687C178.106 54.9915 178.008 54.7517 178.008 54.5018C178.008 54.2519 178.106 54.0121 178.282 53.8349V53.8349C178.364 53.7404 178.464 53.6632 178.576 53.6077C178.688 53.5522 178.809 53.5196 178.934 53.5117C179.059 53.5037 179.184 53.5207 179.302 53.5616C179.42 53.6024 179.528 53.6664 179.622 53.7497L218.229 90.7001C218.404 90.8774 218.503 91.1172 218.503 91.3671C218.503 91.617 218.404 91.8568 218.229 92.034V92.034Z" fill="#ff8562"></path> <path d="M174.868 92.0245C174.791 91.9239 174.736 91.809 174.704 91.6864C174.672 91.5638 174.666 91.4361 174.684 91.3108C174.702 91.1855 174.746 91.0652 174.811 90.9571C174.877 90.8489 174.964 90.7551 175.066 90.6811L194.761 74.5331C194.949 74.3706 195.192 74.2885 195.439 74.3044C195.686 74.3204 195.917 74.4331 196.082 74.6182V74.6182C196.157 74.7185 196.212 74.8327 196.243 74.9544C196.274 75.076 196.28 75.2026 196.261 75.3267C196.243 75.4509 196.2 75.5701 196.135 75.6775C196.071 75.7848 195.985 75.8782 195.884 75.9521L176.189 92.1096C176.002 92.272 175.758 92.3542 175.511 92.3382C175.264 92.3223 175.033 92.2096 174.868 92.0245Z" fill="#ff8562"></path> <path d="M200.318 71.1466C200.242 71.0464 200.188 70.9321 200.157 70.8105C200.126 70.6888 200.12 70.5622 200.138 70.4381C200.157 70.314 200.2 70.1947 200.264 70.0874C200.329 69.98 200.415 69.8867 200.516 69.8128L220.249 53.6363C220.436 53.4739 220.679 53.3918 220.926 53.4077C221.173 53.4236 221.404 53.5363 221.569 53.7215C221.644 53.8217 221.699 53.936 221.73 54.0576C221.761 54.1793 221.767 54.3059 221.749 54.43C221.73 54.5542 221.687 54.6734 221.623 54.7807C221.558 54.8881 221.472 54.9814 221.371 55.0553L201.638 71.2318C201.451 71.3942 201.208 71.4763 200.961 71.4604C200.714 71.4445 200.483 71.3318 200.318 71.1466V71.1466Z" fill="#ff8562"></path> <g opacity="0.7"> <path opacity="0.7" d="M218.229 92.034C218.147 92.1285 218.047 92.2057 217.935 92.2611C217.823 92.3166 217.701 92.3493 217.577 92.3572C217.452 92.3651 217.327 92.3481 217.209 92.3073C217.091 92.2664 216.982 92.2025 216.889 92.1191L178.282 55.1687C178.106 54.9915 178.008 54.7517 178.008 54.5018C178.008 54.2519 178.106 54.0121 178.282 53.8349V53.8349C178.364 53.7404 178.464 53.6632 178.576 53.6077C178.688 53.5522 178.809 53.5196 178.934 53.5117C179.059 53.5037 179.184 53.5207 179.302 53.5616C179.42 53.6024 179.528 53.6664 179.622 53.7497L218.229 90.7001C218.404 90.8774 218.503 91.1172 218.503 91.3671C218.503 91.617 218.404 91.8568 218.229 92.034V92.034Z" fill="white"></path> </g> <g opacity="0.7"> <path opacity="0.7" d="M174.868 92.0245C174.791 91.9239 174.736 91.809 174.704 91.6864C174.672 91.5638 174.666 91.4361 174.684 91.3108C174.702 91.1855 174.746 91.0652 174.811 90.9571C174.877 90.8489 174.964 90.7551 175.066 90.6811L194.761 74.5331C194.949 74.3706 195.192 74.2885 195.439 74.3044C195.686 74.3204 195.917 74.4331 196.082 74.6182V74.6182C196.157 74.7185 196.212 74.8327 196.243 74.9544C196.274 75.076 196.28 75.2026 196.261 75.3267C196.243 75.4509 196.2 75.5701 196.135 75.6775C196.071 75.7848 195.985 75.8782 195.884 75.9521L176.189 92.1096C176.002 92.272 175.758 92.3542 175.511 92.3382C175.264 92.3223 175.033 92.2096 174.868 92.0245Z" fill="white"></path> </g> <g opacity="0.7"> <path opacity="0.7" d="M200.318 71.1466C200.242 71.0464 200.188 70.9321 200.157 70.8105C200.126 70.6888 200.12 70.5622 200.138 70.4381C200.157 70.314 200.2 70.1947 200.264 70.0874C200.329 69.98 200.415 69.8867 200.516 69.8128L220.249 53.6363C220.436 53.4739 220.679 53.3918 220.926 53.4077C221.173 53.4236 221.404 53.5363 221.569 53.7215C221.644 53.8217 221.699 53.936 221.73 54.0576C221.761 54.1793 221.767 54.3059 221.749 54.43C221.73 54.5542 221.687 54.6734 221.623 54.7807C221.558 54.8881 221.472 54.9814 221.371 55.0553L201.638 71.2318C201.451 71.3942 201.208 71.4763 200.961 71.4604C200.714 71.4445 200.483 71.3318 200.318 71.1466V71.1466Z" fill="white"></path> </g> <path d="M334.39 136.637C334.39 136.637 326.703 155.746 319.175 157.809C311.648 159.871 300.31 158.197 300.31 158.197L296.802 159.143L293.359 158.632H293.236L289.359 158.537C289.22 158.549 289.079 158.52 288.955 158.455C288.831 158.389 288.728 158.289 288.659 158.167C288.589 158.044 288.556 157.905 288.563 157.764C288.571 157.624 288.618 157.488 288.699 157.374L290.086 155.482C290.202 155.326 290.364 155.211 290.548 155.15L294.245 153.959C294.391 153.926 294.543 153.926 294.689 153.959L300.348 154.857C300.348 154.857 316.053 152.275 317.657 150.818C319.26 149.361 323.986 134.083 323.986 134.083L334.39 136.637Z" fill="#EEC1BB"></path> <path opacity="0.1" d="M300.697 154.734L300.329 154.791L294.669 153.892C294.523 153.86 294.372 153.86 294.226 153.892L290.528 155.084C290.344 155.144 290.183 155.26 290.066 155.415L288.68 157.307C288.598 157.422 288.551 157.558 288.544 157.698C288.537 157.839 288.57 157.978 288.639 158.101C288.709 158.223 288.812 158.323 288.936 158.388C289.06 158.454 289.2 158.483 289.34 158.471L293.217 158.566H293.339L295.65 158.906C297.621 157.91 299.345 156.485 300.697 154.734Z" fill="black"></path> <path d="M339.031 117.708C333.447 115.873 325.59 120.083 322.581 137.716L334.174 141.15C334.174 141.15 347.011 120.338 339.031 117.708Z" fill="#ff8562"></path> <path d="M306.545 94.6637C306.545 95.2502 306.856 95.7138 307.234 95.7138C307.611 95.7138 307.941 95.2124 307.913 94.6448C307.884 94.0772 307.601 93.6042 307.224 93.6137C306.847 93.6231 306.545 94.0867 306.545 94.6637Z" fill="#263238"></path> <path d="M308.828 95.2407L306.083 99.7909C306.083 99.7909 307.026 100.869 309.092 100.075L308.828 95.2407Z" fill="#D4827D"></path> <path d="M309.346 91.0122C309.313 91.0504 309.27 91.0792 309.222 91.0958C309.174 91.1124 309.123 91.1162 309.073 91.1068C308.701 91.0429 308.32 91.0689 307.961 91.1824C307.602 91.2959 307.275 91.4938 307.007 91.7595C306.949 91.8134 306.874 91.8433 306.795 91.8433C306.716 91.8433 306.64 91.8134 306.583 91.7595C306.528 91.7002 306.498 91.6225 306.498 91.5419C306.498 91.4614 306.528 91.3837 306.583 91.3244C306.916 90.9825 307.327 90.7272 307.78 90.5805C308.234 90.4338 308.716 90.4001 309.186 90.4824C309.226 90.4871 309.264 90.4997 309.299 90.5194C309.334 90.5391 309.364 90.5656 309.389 90.5973C309.414 90.6289 309.432 90.6652 309.442 90.704C309.453 90.7427 309.455 90.7832 309.45 90.823V90.823C309.436 90.8952 309.399 90.9613 309.346 91.0122V91.0122Z" fill="#263238"></path> <path d="M328.739 90.5394C329.164 98.2303 329.513 101.485 326.126 105.855C320.722 110.538 311.515 111.285 308.799 103.878C306.356 97.256 306.073 85.7811 313.166 81.8174C314.369 81.145 315.693 80.7171 317.061 80.5581C318.429 80.3991 319.815 80.5122 321.14 80.8909C322.464 81.2696 323.702 81.9064 324.781 82.765C325.86 83.6236 326.759 84.687 327.428 85.8946C328.213 87.3222 328.661 88.9111 328.739 90.5394V90.5394Z" fill="#EEC1BB"></path> <path d="M318.053 107.368L319.996 118.768L329.466 116.573L326.155 104.937L318.053 107.368Z" fill="#EEC1BB"></path> <path d="M311.233 91.1069C311.714 86.1121 309.998 91.8826 307.696 85.289C305.395 78.6955 316.27 73.3412 318.006 74.5709C319.742 75.8007 318.751 77.6833 324.505 78.7522C326.075 79.0022 327.5 79.8172 328.514 81.0448C329.528 82.2723 330.061 83.8282 330.014 85.4215C330.014 85.4215 333.324 86.954 332.145 94.0868C331.28 98.657 329.34 102.954 326.486 106.621C326.486 106.621 324.307 104.37 320.826 106.441C319.468 105.552 318.319 104.377 317.459 102.998C315.912 100.671 315.431 98.4572 313.309 98.2681C308.875 97.8613 311.073 92.7529 311.233 91.1069Z" fill="#263238"></path> <path d="M329.4 86.2823C329.4 86.2823 334.117 83.3876 332.023 80.351C329.929 77.3143 330.938 83.6998 329.4 86.2823Z" fill="#263238"></path> <path d="M312.582 94.0111C311.536 95.1839 310.996 96.7251 311.082 98.2964C311.214 100.378 313.252 100.747 314.855 99.6113C316.459 98.4761 317.977 96.2625 317.053 94.4368C316.848 94.0384 316.546 93.6981 316.176 93.447C315.806 93.1959 315.378 93.0421 314.933 92.9998C314.488 92.9574 314.04 93.0278 313.629 93.2045C313.218 93.3812 312.858 93.6585 312.582 94.0111V94.0111Z" fill="#FFC3BD"></path> <path opacity="0.1" d="M318.231 108.447L319.005 112.969C318.937 111.849 319.09 110.727 319.456 109.667C319.822 108.607 320.393 107.63 321.137 106.792C320.559 106.829 319.997 106.997 319.494 107.284C318.991 107.571 318.559 107.968 318.231 108.447V108.447Z" fill="black"></path> <path d="M251.649 137.848H248.941V153.864H251.649V137.848Z" fill="#ff8562"></path> <path opacity="0.7" d="M251.649 137.848H248.941V153.864H251.649V137.848Z" fill="white"></path> <path d="M233.047 106.044H226.302C225.089 106.044 223.925 106.528 223.067 107.388C222.21 108.248 221.728 109.415 221.728 110.632V141.973C221.728 142.575 221.846 143.172 222.076 143.729C222.306 144.285 222.643 144.791 223.067 145.217C223.492 145.643 223.997 145.981 224.552 146.212C225.107 146.442 225.702 146.561 226.302 146.561H233.047V106.044Z" fill="#ff8562"></path> <path d="M274.295 106.044H228.661C226.134 106.044 224.086 108.098 224.086 110.632V141.963C224.086 144.497 226.134 146.552 228.661 146.552H274.295C276.822 146.552 278.87 144.497 278.87 141.963V110.632C278.87 108.098 276.822 106.044 274.295 106.044Z" fill="#ff8562"></path> <path opacity="0.5" d="M274.295 106.044H228.661C226.134 106.044 224.086 108.098 224.086 110.632V141.963C224.086 144.497 226.134 146.552 228.661 146.552H274.295C276.822 146.552 278.87 144.497 278.87 141.963V110.632C278.87 108.098 276.822 106.044 274.295 106.044Z" fill="white"></path> <path d="M274.295 107.936H228.661C227.176 107.936 225.973 109.143 225.973 110.632V141.963C225.973 143.452 227.176 144.659 228.661 144.659H274.295C275.78 144.659 276.984 143.452 276.984 141.963V110.632C276.984 109.143 275.78 107.936 274.295 107.936Z" fill="#263238"></path> <path d="M240.442 160.581C240.522 158.013 241.594 155.577 243.433 153.789C245.272 152.001 247.733 151.001 250.295 151.001C252.856 151.001 255.317 152.001 257.156 153.789C258.995 155.577 260.068 158.013 260.147 160.581H240.442Z" fill="#ff8562"></path> <path d="M263.693 157.213H243.988V160.42H283.397V159.105L263.693 157.213Z" fill="#ff8562"></path> <path opacity="0.8" d="M263.693 157.213H243.988V160.42H283.397V159.105L263.693 157.213Z" fill="white"></path> <path d="M263.693 160.42H243.988V157.213L263.693 159.105V160.42Z" fill="#ff8562"></path> <path opacity="0.6" d="M263.693 160.42H243.988V157.213L263.693 159.105V160.42Z" fill="white"></path> <path d="M307.139 270.826H266.495C265.684 270.828 264.881 270.668 264.131 270.358C263.382 270.048 262.7 269.592 262.127 269.018C261.553 268.443 261.097 267.761 260.787 267.009C260.476 266.258 260.316 265.453 260.316 264.64V170.911C260.316 170.097 260.476 169.292 260.787 168.541C261.097 167.79 261.553 167.107 262.127 166.533C262.7 165.958 263.382 165.502 264.131 165.192C264.881 164.882 265.684 164.723 266.495 164.724H307.139C307.577 164.724 307.997 164.898 308.307 165.209C308.616 165.519 308.79 165.94 308.79 166.379C308.79 166.818 308.616 167.24 308.307 167.55C307.997 167.86 307.577 168.035 307.139 168.035H266.495C266.119 168.029 265.746 168.097 265.397 168.237C265.048 168.377 264.731 168.585 264.463 168.849C264.195 169.113 263.983 169.428 263.838 169.776C263.692 170.123 263.618 170.496 263.618 170.873V264.602C263.618 264.978 263.692 265.351 263.838 265.699C263.983 266.046 264.195 266.361 264.463 266.625C264.731 266.889 265.048 267.098 265.397 267.237C265.746 267.377 266.119 267.446 266.495 267.44H307.139C307.577 267.44 307.997 267.614 308.307 267.925C308.616 268.235 308.79 268.656 308.79 269.095C308.8 269.319 308.765 269.542 308.687 269.752C308.608 269.962 308.488 270.153 308.334 270.315C308.18 270.477 307.994 270.606 307.789 270.693C307.584 270.781 307.363 270.827 307.139 270.826V270.826Z" fill="#263238"></path> <g opacity="0.5"> <path opacity="0.5" d="M307.139 270.826H266.495C265.684 270.828 264.881 270.668 264.131 270.358C263.382 270.048 262.7 269.592 262.127 269.018C261.553 268.443 261.097 267.761 260.787 267.009C260.476 266.258 260.316 265.453 260.316 264.64V170.911C260.316 170.097 260.476 169.292 260.787 168.541C261.097 167.79 261.553 167.107 262.127 166.533C262.7 165.958 263.382 165.502 264.131 165.192C264.881 164.882 265.684 164.723 266.495 164.724H307.139C307.577 164.724 307.997 164.898 308.307 165.209C308.616 165.519 308.79 165.94 308.79 166.379C308.79 166.818 308.616 167.24 308.307 167.55C307.997 167.86 307.577 168.035 307.139 168.035H266.495C266.119 168.029 265.746 168.097 265.397 168.237C265.048 168.377 264.731 168.585 264.463 168.849C264.195 169.113 263.983 169.428 263.838 169.776C263.692 170.123 263.618 170.496 263.618 170.873V264.602C263.618 264.978 263.692 265.351 263.838 265.699C263.983 266.046 264.195 266.361 264.463 266.625C264.731 266.889 265.048 267.098 265.397 267.237C265.746 267.377 266.119 267.446 266.495 267.44H307.139C307.577 267.44 307.997 267.614 308.307 267.925C308.616 268.235 308.79 268.656 308.79 269.095C308.8 269.319 308.765 269.542 308.687 269.752C308.608 269.962 308.488 270.153 308.334 270.315C308.18 270.477 307.994 270.606 307.789 270.693C307.584 270.781 307.363 270.827 307.139 270.826V270.826Z" fill="white"></path> </g> <path d="M266.335 160.42H208.617V165.273H266.335V160.42Z" fill="#ff8562"></path> <path opacity="0.2" d="M266.335 160.42H208.617V165.273H266.335V160.42Z" fill="white"></path> <path d="M312.921 160.42H263.693V165.273H312.921V160.42Z" fill="#ff8562"></path> <path opacity="0.5" d="M312.921 160.42H263.693V165.273H312.921V160.42Z" fill="white"></path> <path d="M295.66 236.44L298.386 264.082H291.859L285.322 237.159L295.66 236.44Z" fill="#EEC1BB"></path> <path d="M291.246 262.237L299.575 262.379C299.727 262.382 299.873 262.437 299.99 262.535C300.106 262.633 300.186 262.768 300.216 262.918L301.612 269.739C301.671 270.028 301.614 270.329 301.453 270.577C301.293 270.825 301.041 270.999 300.754 271.063H300.518C297.509 270.959 294.858 270.751 291.085 270.685C286.68 270.609 287.784 271.158 282.596 271.148C279.474 271.148 278.965 267.563 280.285 267.411C286.369 266.749 287.029 264.923 289.406 262.785C289.932 262.383 290.586 262.187 291.246 262.237V262.237Z" fill="#263238"></path> <path opacity="0.1" d="M297.679 256.864L295.66 236.44L285.322 237.159L290.105 256.864H297.679Z" fill="black"></path> <path d="M340.352 172.708L313.582 173.654C313.582 173.654 277.522 186.302 276.579 196.017C275.541 206.026 287.652 252.01 287.652 252.01H298.415C298.415 252.01 295.444 218.267 294.312 207.937C293.18 197.607 331.844 201.022 338.56 192.214C344.7 184.136 340.352 172.708 340.352 172.708Z" fill="#263238"></path> <path opacity="0.2" d="M340.352 172.708L313.582 173.654C313.582 173.654 277.522 186.302 276.579 196.017C275.541 206.026 287.652 252.01 287.652 252.01H298.415C298.415 252.01 295.444 218.267 294.312 207.937C293.18 197.607 331.844 201.022 338.56 192.214C344.7 184.136 340.352 172.708 340.352 172.708Z" fill="black"></path> <path d="M300.206 250.497L300.442 254.309H287.143L285.841 250.497H300.206Z" fill="#ff8562"></path> <path d="M270.75 237.754L271.466 264.081H265.052L261.251 237.754H270.75Z" fill="#EEC1BB"></path> <path d="M264.165 262.237L272.494 262.378C272.646 262.382 272.792 262.437 272.909 262.535C273.025 262.633 273.105 262.768 273.135 262.918L274.531 269.738C274.59 270.028 274.533 270.329 274.372 270.577C274.212 270.825 273.96 270.999 273.673 271.063H273.437C270.428 270.959 267.777 270.75 264.004 270.684C259.59 270.609 260.703 271.157 255.515 271.148C252.393 271.148 251.884 267.562 253.204 267.411C259.288 266.749 259.948 264.923 262.325 262.785C262.85 262.381 263.505 262.185 264.165 262.237V262.237Z" fill="#263238"></path> <path opacity="0.1" d="M271.268 256.844L270.749 237.754H261.251L264.015 256.863C266.08 256.873 268.92 256.854 271.268 256.844Z" fill="black"></path> <path d="M328.711 174.931C328.711 174.931 330.937 195.346 310.233 196.301C289.529 197.256 273.361 199.631 272.89 207.019C272.418 214.407 272.89 252.048 272.89 252.048H261.637C261.637 252.048 257.26 228.247 255.553 213.49C253.893 199.158 250.837 188.762 265.523 183.909C281.115 178.743 308.828 173.976 308.828 173.976L328.787 172.708L328.711 174.931Z" fill="#263238"></path> <path d="M274.55 250.497L273.843 254.309H261.486L260.185 250.497H274.55Z" fill="#ff8562"></path> <path d="M333.172 116.365C333.172 116.365 333.172 111.767 323.9 112.297C314.053 112.865 315.911 117.273 315.911 117.273L333.172 116.365Z" fill="#ff8562"></path> <path opacity="0.3" d="M333.172 116.365C333.172 116.365 333.172 111.767 323.9 112.297C314.053 112.865 315.911 117.273 315.911 117.273L333.172 116.365Z" fill="black"></path> <path d="M341.813 136.987C341.191 146.078 341.408 173.427 341.408 173.427C341.408 173.427 321.599 174.732 306.055 174.222L304.253 121.615C304.26 120.685 304.546 119.778 305.074 119.014C305.603 118.249 306.349 117.663 307.215 117.33C311.61 115.617 321.929 113.678 338.068 115.807C343.634 116.554 342.549 126.241 341.813 136.987Z" fill="#ff8562"></path> <path d="M307.432 136.637C307.432 136.637 299.735 155.746 292.217 157.809C284.7 159.871 273.352 158.197 273.352 158.197L269.844 159.143L266.41 158.632H266.288L262.401 158.537C262.262 158.549 262.121 158.52 261.997 158.455C261.873 158.389 261.77 158.289 261.701 158.167C261.631 158.044 261.598 157.905 261.605 157.764C261.613 157.624 261.66 157.488 261.741 157.374L263.137 155.482C263.254 155.326 263.415 155.211 263.599 155.15L267.287 153.959C267.437 153.926 267.591 153.926 267.74 153.959L273.4 154.857C273.4 154.857 289.105 152.275 290.699 150.818C292.293 149.361 297.037 134.083 297.037 134.083L307.432 136.637Z" fill="#EEC1BB"></path> <path opacity="0.1" d="M307.235 127.745C307.235 127.745 306.037 129.173 304.584 131.236L305.103 146.466C310.885 143.903 313.177 128.975 313.177 128.975L309.404 126.307L307.235 127.745Z" fill="black"></path> <path d="M312.073 117.708C306.489 115.873 298.622 120.083 295.613 137.716L307.215 141.112C307.215 141.112 320.053 120.338 312.073 117.708Z" fill="#ff8562"></path> <path d="M319.458 206.206H310.733V231.851H319.458V206.206Z" fill="#263238"></path> <path opacity="0.6" d="M319.458 206.206H310.733V231.851H319.458V206.206Z" fill="white"></path> <path d="M320.807 255.085V222.505H309.375V255.085L283.351 258.708V262.331L315.091 259.616L346.831 262.331V258.708L320.807 255.085Z" fill="#263238"></path> <path d="M282.973 271.214C284.875 271.214 286.416 269.668 286.416 267.761C286.416 265.854 284.875 264.309 282.973 264.309C281.072 264.309 279.53 265.854 279.53 267.761C279.53 269.668 281.072 271.214 282.973 271.214Z" fill="#ff8562"></path> <path d="M346.831 271.214C348.732 271.214 350.273 269.668 350.273 267.761C350.273 265.854 348.732 264.309 346.831 264.309C344.929 264.309 343.388 265.854 343.388 267.761C343.388 269.668 344.929 271.214 346.831 271.214Z" fill="#ff8562"></path> <path d="M315.091 271.214C316.993 271.214 318.534 269.668 318.534 267.761C318.534 265.854 316.993 264.309 315.091 264.309C313.19 264.309 311.648 265.854 311.648 267.761C311.648 269.668 313.19 271.214 315.091 271.214Z" fill="#ff8562"></path> <path opacity="0.3" d="M319.458 206.206H310.733V212.544H319.458V206.206Z" fill="black"></path> <path d="M349.585 148.074H321.156C318.921 148.076 316.767 148.914 315.115 150.424C313.463 151.934 312.432 154.007 312.223 156.238L309.827 181.998C309.561 184.837 308.286 187.485 306.233 189.458C304.181 191.431 301.489 192.598 298.65 192.744L271.211 194.125C269.605 194.208 268.092 194.905 266.984 196.074C265.877 197.243 265.259 198.794 265.259 200.407V200.984C265.259 202.366 265.806 203.692 266.781 204.669C267.756 205.647 269.078 206.196 270.456 206.196H354.018L358.518 157.951C358.639 156.701 358.498 155.44 358.104 154.248C357.71 153.056 357.072 151.96 356.231 151.03C355.39 150.1 354.364 149.356 353.22 148.847C352.075 148.338 350.837 148.075 349.585 148.074V148.074Z" fill="#ff8562"></path> <path opacity="0.3" d="M349.585 148.074H321.156C318.921 148.076 316.767 148.914 315.115 150.424C313.463 151.934 312.432 154.007 312.223 156.238L309.827 181.998C309.561 184.837 308.286 187.485 306.233 189.458C304.181 191.431 301.489 192.598 298.65 192.744L271.211 194.125C269.605 194.208 268.092 194.905 266.984 196.074C265.877 197.243 265.259 198.794 265.259 200.407V200.984C265.259 202.366 265.806 203.692 266.781 204.669C267.756 205.647 269.078 206.196 270.456 206.196H354.018L358.518 157.951C358.639 156.701 358.498 155.44 358.104 154.248C357.71 153.056 357.072 151.96 356.231 151.03C355.39 150.1 354.364 149.356 353.22 148.847C352.075 148.338 350.837 148.075 349.585 148.074V148.074Z" fill="white"></path> <path d="M284.332 177.097H288.247V197.635C288.247 198.137 288.048 198.618 287.694 198.973C287.34 199.328 286.86 199.527 286.36 199.527H286.219C285.718 199.527 285.238 199.328 284.885 198.973C284.531 198.618 284.332 198.137 284.332 197.635V177.097Z" fill="#263238"></path> <path opacity="0.2" d="M284.332 177.097H288.247V197.635C288.247 198.137 288.048 198.618 287.694 198.973C287.34 199.328 286.86 199.527 286.36 199.527H286.219C285.718 199.527 285.238 199.328 284.885 198.973C284.531 198.618 284.332 198.137 284.332 197.635V177.097Z" fill="white"></path> <path d="M303.206 171.204H294.5V178.441H303.225C303.714 178.466 304.204 178.391 304.663 178.22C305.123 178.05 305.543 177.787 305.898 177.449C306.253 177.11 306.536 176.703 306.729 176.251C306.923 175.8 307.022 175.314 307.022 174.822C307.022 174.331 306.923 173.844 306.729 173.393C306.536 172.941 306.253 172.534 305.898 172.196C305.543 171.857 305.123 171.595 304.663 171.424C304.204 171.254 303.714 171.179 303.225 171.204H303.206Z" fill="#ff8562"></path> <path opacity="0.5" d="M303.206 171.204H294.5V178.441H303.225C303.714 178.466 304.204 178.391 304.663 178.22C305.123 178.05 305.543 177.787 305.898 177.449C306.253 177.11 306.536 176.703 306.729 176.251C306.923 175.8 307.022 175.314 307.022 174.822C307.022 174.331 306.923 173.844 306.729 173.393C306.536 172.941 306.253 172.534 305.898 172.196C305.543 171.857 305.123 171.595 304.663 171.424C304.204 171.254 303.714 171.179 303.225 171.204H303.206Z" fill="white"></path> <path d="M299.726 171.204H269.231C267.308 171.204 265.75 172.767 265.75 174.695V174.959C265.75 176.887 267.308 178.45 269.231 178.45H299.726C301.648 178.45 303.206 176.887 303.206 174.959V174.695C303.206 172.767 301.648 171.204 299.726 171.204Z" fill="#ff8562"></path> <path opacity="0.3" d="M299.726 171.204H269.231C267.308 171.204 265.75 172.767 265.75 174.695V174.959C265.75 176.887 267.308 178.45 269.231 178.45H299.726C301.648 178.45 303.206 176.887 303.206 174.959V174.695C303.206 172.767 301.648 171.204 299.726 171.204Z" fill="white"></path> <path d="M355.98 206.206H314.185L318.844 156.286C319.053 154.054 320.084 151.981 321.736 150.471C323.388 148.961 325.542 148.124 327.777 148.122H356.206C357.455 148.123 358.689 148.385 359.831 148.892C360.973 149.399 361.997 150.138 362.837 151.064C363.678 151.99 364.317 153.081 364.713 154.269C365.109 155.456 365.254 156.713 365.139 157.96L361.073 201.608C360.941 202.87 360.347 204.038 359.406 204.887C358.466 205.736 357.245 206.206 355.98 206.206Z" fill="#ff8562"></path> <path opacity="0.5" d="M355.98 206.206H314.185L318.844 156.286C319.053 154.054 320.084 151.981 321.736 150.471C323.388 148.961 325.542 148.124 327.777 148.122H356.206C357.455 148.123 358.689 148.385 359.831 148.892C360.973 149.399 361.997 150.138 362.837 151.064C363.678 151.99 364.317 153.081 364.713 154.269C365.109 155.456 365.254 156.713 365.139 157.96L361.073 201.608C360.941 202.87 360.347 204.038 359.406 204.887C358.466 205.736 357.245 206.206 355.98 206.206Z" fill="white"></path> <path d="M258.345 270.826H217.701C216.89 270.828 216.087 270.668 215.337 270.358C214.588 270.048 213.906 269.592 213.333 269.018C212.759 268.443 212.304 267.761 211.993 267.009C211.682 266.258 211.522 265.453 211.522 264.64V170.911C211.522 170.097 211.682 169.292 211.993 168.541C212.304 167.79 212.759 167.107 213.333 166.533C213.906 165.958 214.588 165.502 215.337 165.192C216.087 164.882 216.89 164.723 217.701 164.724H258.345C258.783 164.724 259.203 164.898 259.513 165.209C259.822 165.519 259.996 165.94 259.996 166.379V166.379C259.996 166.818 259.822 167.24 259.513 167.55C259.203 167.86 258.783 168.035 258.345 168.035H217.701C217.325 168.029 216.952 168.097 216.603 168.237C216.255 168.377 215.937 168.585 215.669 168.849C215.401 169.113 215.189 169.428 215.044 169.776C214.899 170.123 214.824 170.496 214.824 170.873V264.602C214.824 264.978 214.899 265.351 215.044 265.699C215.189 266.046 215.401 266.361 215.669 266.625C215.937 266.889 216.255 267.098 216.603 267.237C216.952 267.377 217.325 267.446 217.701 267.44H258.345C258.783 267.44 259.203 267.614 259.513 267.925C259.822 268.235 259.996 268.656 259.996 269.095V269.095C260.006 269.319 259.971 269.542 259.893 269.752C259.814 269.962 259.694 270.153 259.54 270.315C259.386 270.477 259.2 270.606 258.995 270.693C258.79 270.781 258.569 270.827 258.345 270.826V270.826Z" fill="#263238"></path> <g opacity="0.5"> <path opacity="0.5" d="M258.345 270.826H217.701C216.89 270.828 216.087 270.668 215.337 270.358C214.588 270.048 213.906 269.592 213.333 269.018C212.759 268.443 212.304 267.761 211.993 267.009C211.682 266.258 211.522 265.453 211.522 264.64V170.911C211.522 170.097 211.682 169.292 211.993 168.541C212.304 167.79 212.759 167.107 213.333 166.533C213.906 165.958 214.588 165.502 215.337 165.192C216.087 164.882 216.89 164.723 217.701 164.724H258.345C258.783 164.724 259.203 164.898 259.513 165.209C259.822 165.519 259.996 165.94 259.996 166.379V166.379C259.996 166.818 259.822 167.24 259.513 167.55C259.203 167.86 258.783 168.035 258.345 168.035H217.701C217.325 168.029 216.952 168.097 216.603 168.237C216.255 168.377 215.937 168.585 215.669 168.849C215.401 169.113 215.189 169.428 215.044 169.776C214.899 170.123 214.824 170.496 214.824 170.873V264.602C214.824 264.978 214.899 265.351 215.044 265.699C215.189 266.046 215.401 266.361 215.669 266.625C215.937 266.889 216.255 267.098 216.603 267.237C216.952 267.377 217.325 267.446 217.701 267.44H258.345C258.783 267.44 259.203 267.614 259.513 267.925C259.822 268.235 259.996 268.656 259.996 269.095V269.095C260.006 269.319 259.971 269.542 259.893 269.752C259.814 269.962 259.694 270.153 259.54 270.315C259.386 270.477 259.2 270.606 258.995 270.693C258.79 270.781 258.569 270.827 258.345 270.826V270.826Z" fill="white"></path> </g> <path d="M231.482 115.409L228.652 113.517C228.58 113.471 228.521 113.408 228.48 113.332C228.439 113.257 228.417 113.173 228.417 113.087C228.417 113.001 228.439 112.917 228.48 112.842C228.521 112.766 228.58 112.703 228.652 112.657L231.482 110.765C231.586 110.696 231.712 110.672 231.834 110.696C231.956 110.721 232.063 110.793 232.133 110.897V110.897C232.198 111.001 232.221 111.125 232.196 111.245C232.171 111.365 232.101 111.471 232.001 111.54L229.652 113.101L232.001 114.662C232.101 114.731 232.171 114.837 232.196 114.957C232.221 115.077 232.198 115.202 232.133 115.305C232.058 115.403 231.949 115.467 231.828 115.487C231.707 115.506 231.583 115.478 231.482 115.409Z" fill="white"></path> <path d="M237.745 115.277C237.689 115.173 237.674 115.052 237.704 114.938C237.733 114.823 237.805 114.725 237.905 114.662L240.254 113.101L237.905 111.512C237.804 111.443 237.734 111.336 237.711 111.216C237.688 111.095 237.714 110.97 237.783 110.869V110.869C237.816 110.818 237.859 110.774 237.909 110.74C237.96 110.705 238.016 110.681 238.076 110.669C238.136 110.657 238.197 110.656 238.257 110.668C238.316 110.679 238.373 110.703 238.424 110.736L241.254 112.628C241.326 112.674 241.385 112.738 241.426 112.813C241.467 112.889 241.489 112.973 241.489 113.059C241.489 113.144 241.467 113.229 241.426 113.304C241.385 113.379 241.326 113.443 241.254 113.489L238.424 115.381C238.373 115.421 238.315 115.45 238.253 115.466C238.191 115.483 238.126 115.486 238.062 115.476C237.998 115.467 237.938 115.444 237.883 115.41C237.828 115.375 237.781 115.33 237.745 115.277Z" fill="white"></path> <path d="M233.868 116.554C233.809 116.536 233.755 116.506 233.708 116.467C233.661 116.427 233.623 116.379 233.594 116.324C233.566 116.269 233.549 116.21 233.544 116.149C233.54 116.087 233.547 116.026 233.566 115.967L235.518 109.781C235.536 109.722 235.564 109.668 235.603 109.621C235.641 109.574 235.689 109.536 235.742 109.507C235.796 109.479 235.855 109.462 235.915 109.457C235.975 109.452 236.036 109.459 236.094 109.478V109.478C236.152 109.495 236.206 109.524 236.253 109.563C236.3 109.601 236.338 109.649 236.366 109.702C236.395 109.756 236.412 109.815 236.417 109.876C236.422 109.936 236.415 109.997 236.396 110.055L234.452 116.251C234.434 116.31 234.405 116.364 234.365 116.411C234.326 116.458 234.278 116.497 234.223 116.525C234.169 116.553 234.109 116.571 234.048 116.575C233.987 116.58 233.926 116.573 233.868 116.554V116.554Z" fill="white"></path> <path d="M249.884 121.284H228.878C228.814 121.284 228.75 121.271 228.691 121.247C228.632 121.222 228.579 121.185 228.534 121.139C228.489 121.094 228.454 121.039 228.43 120.98C228.407 120.92 228.395 120.856 228.397 120.792C228.395 120.728 228.407 120.664 228.43 120.605C228.454 120.545 228.489 120.491 228.534 120.445C228.579 120.399 228.632 120.363 228.691 120.338C228.75 120.313 228.814 120.3 228.878 120.3H249.884C250.014 120.3 250.139 120.352 250.231 120.444C250.323 120.537 250.374 120.662 250.374 120.792V120.792C250.374 120.857 250.362 120.921 250.337 120.98C250.312 121.04 250.276 121.094 250.231 121.14C250.185 121.186 250.131 121.222 250.071 121.247C250.012 121.271 249.948 121.284 249.884 121.284V121.284Z" fill="white"></path> <path d="M274.013 121.284H252.997C252.933 121.284 252.869 121.271 252.81 121.247C252.75 121.222 252.696 121.186 252.65 121.14C252.605 121.094 252.569 121.04 252.544 120.98C252.52 120.921 252.507 120.857 252.507 120.792V120.792C252.516 120.668 252.572 120.553 252.663 120.469C252.754 120.384 252.874 120.338 252.997 120.338H273.994C274.124 120.338 274.249 120.39 274.341 120.482C274.433 120.574 274.485 120.7 274.485 120.83V120.83C274.475 120.951 274.422 121.064 274.335 121.147C274.248 121.231 274.133 121.28 274.013 121.284V121.284Z" fill="white"></path> <path d="M240.885 125.617H228.878C228.814 125.617 228.75 125.604 228.691 125.579C228.632 125.554 228.579 125.518 228.534 125.472C228.489 125.426 228.454 125.372 228.43 125.312C228.407 125.253 228.395 125.189 228.397 125.125C228.397 124.997 228.447 124.874 228.537 124.784C228.628 124.693 228.75 124.642 228.878 124.642H240.885C241.014 124.642 241.137 124.693 241.229 124.783C241.32 124.873 241.373 124.996 241.376 125.125V125.125C241.376 125.255 241.324 125.38 241.232 125.473C241.14 125.565 241.015 125.617 240.885 125.617Z" fill="white"></path> <path d="M263.675 125.617H244.009C243.945 125.617 243.881 125.604 243.822 125.579C243.763 125.554 243.71 125.518 243.665 125.472C243.62 125.426 243.585 125.372 243.561 125.312C243.538 125.253 243.526 125.189 243.527 125.125C243.527 124.997 243.578 124.874 243.668 124.784C243.759 124.693 243.881 124.642 244.009 124.642H263.675C263.803 124.642 263.925 124.693 264.015 124.784C264.106 124.874 264.156 124.997 264.156 125.125V125.125C264.158 125.189 264.146 125.253 264.122 125.312C264.099 125.372 264.064 125.426 264.019 125.472C263.974 125.518 263.921 125.554 263.862 125.579C263.803 125.604 263.739 125.617 263.675 125.617Z" fill="white"></path> <path d="M260.873 129.959H228.878C228.749 129.956 228.627 129.903 228.537 129.811C228.447 129.719 228.397 129.596 228.397 129.467V129.467C228.395 129.403 228.407 129.339 228.43 129.279C228.454 129.22 228.489 129.165 228.534 129.119C228.579 129.074 228.632 129.037 228.691 129.012C228.75 128.988 228.814 128.975 228.878 128.975H260.873C261.003 128.975 261.127 129.027 261.219 129.119C261.311 129.211 261.363 129.336 261.363 129.467V129.467C261.363 129.597 261.311 129.722 261.219 129.815C261.127 129.907 261.003 129.959 260.873 129.959V129.959Z" fill="white"></path> <path d="M270.682 129.959H264.004C263.874 129.959 263.749 129.907 263.657 129.815C263.565 129.722 263.514 129.597 263.514 129.467V129.467C263.514 129.336 263.565 129.211 263.657 129.119C263.749 129.027 263.874 128.975 264.004 128.975H270.682C270.812 128.975 270.937 129.027 271.029 129.119C271.121 129.211 271.173 129.336 271.173 129.467V129.467C271.173 129.597 271.121 129.722 271.029 129.815C270.937 129.907 270.812 129.959 270.682 129.959V129.959Z" fill="white"></path> <path d="M243.819 134.291H228.878C228.814 134.291 228.75 134.278 228.691 134.254C228.632 134.229 228.579 134.192 228.534 134.147C228.489 134.101 228.454 134.046 228.43 133.987C228.407 133.927 228.395 133.863 228.397 133.799C228.395 133.735 228.407 133.671 228.43 133.612C228.454 133.552 228.489 133.498 228.534 133.452C228.579 133.406 228.632 133.37 228.691 133.345C228.75 133.32 228.814 133.307 228.878 133.307H243.819C243.949 133.307 244.074 133.359 244.165 133.451C244.257 133.544 244.309 133.669 244.309 133.799V133.799C244.309 133.93 244.257 134.055 244.165 134.147C244.074 134.239 243.949 134.291 243.819 134.291V134.291Z" fill="white"></path> <path d="M265.543 134.291H246.951C246.821 134.291 246.697 134.239 246.605 134.147C246.513 134.055 246.461 133.93 246.461 133.799V133.799C246.461 133.669 246.513 133.544 246.605 133.451C246.697 133.359 246.821 133.307 246.951 133.307H265.543C265.673 133.307 265.798 133.359 265.89 133.451C265.982 133.544 266.033 133.669 266.033 133.799V133.799C266.033 133.93 265.982 134.055 265.89 134.147C265.798 134.239 265.673 134.291 265.543 134.291V134.291Z" fill="white"></path> <path d="M249.884 138.624H228.878C228.814 138.624 228.75 138.611 228.691 138.586C228.632 138.561 228.579 138.525 228.534 138.479C228.489 138.433 228.454 138.379 228.43 138.32C228.407 138.26 228.395 138.196 228.397 138.132C228.397 138.004 228.447 137.881 228.537 137.791C228.628 137.7 228.75 137.65 228.878 137.65H249.884C249.948 137.648 250.011 137.66 250.071 137.683C250.13 137.707 250.184 137.743 250.23 137.787C250.276 137.832 250.312 137.886 250.337 137.945C250.362 138.004 250.374 138.068 250.374 138.132C250.374 138.262 250.323 138.388 250.231 138.48C250.139 138.572 250.014 138.624 249.884 138.624V138.624Z" fill="white"></path> <path d="M267.835 138.624H252.997C252.867 138.624 252.742 138.572 252.65 138.48C252.558 138.388 252.507 138.262 252.507 138.132V138.132C252.507 138.068 252.52 138.004 252.544 137.945C252.569 137.886 252.605 137.832 252.651 137.787C252.697 137.743 252.751 137.707 252.81 137.683C252.87 137.66 252.933 137.648 252.997 137.65H267.816C267.943 137.65 268.066 137.7 268.156 137.791C268.246 137.881 268.297 138.004 268.297 138.132V138.132C268.299 138.258 268.252 138.381 268.166 138.473C268.08 138.565 267.961 138.619 267.835 138.624Z" fill="white"></path> <path d="M85.5421 53.9485C85.9288 58.4041 84.9667 66.4734 81.6182 69.0843C87.0796 71.0615 92.8711 74.467 96.5687 78.9605C100.238 73.6062 96.0687 70.5506 96.0687 70.5506C91.3525 68.8667 91.8524 65.2814 93.0692 61.9799L85.5421 53.9485Z" fill="#B97964"></path> <path d="M103.397 50.1078C103.341 50.6659 103.605 51.1484 103.973 51.1862C104.341 51.224 104.671 50.7889 104.727 50.2402C104.784 49.6915 104.52 49.1996 104.152 49.1618C103.784 49.1239 103.463 49.5496 103.397 50.1078Z" fill="#263238"></path> <path d="M104.012 49.1711L105.379 48.9062C105.379 48.9062 104.597 49.9184 104.012 49.1711Z" fill="#263238"></path> <path d="M103.587 50.7036C103.972 52.0342 104.533 53.3069 105.256 54.4876C104.95 54.665 104.61 54.7738 104.258 54.8064C103.906 54.8391 103.552 54.7948 103.219 54.6768L103.587 50.7036Z" fill="#A24E3F"></path> <path d="M104.983 47.1657C105.07 47.1518 105.15 47.1084 105.209 47.0427C105.267 46.9797 105.3 46.8969 105.3 46.8109C105.3 46.7249 105.267 46.6421 105.209 46.5792C104.821 46.224 104.354 45.9673 103.847 45.8307C103.34 45.6941 102.807 45.6815 102.294 45.794C102.222 45.844 102.171 45.9195 102.152 46.0054C102.133 46.0913 102.147 46.1813 102.191 46.2575C102.22 46.3061 102.261 46.3459 102.311 46.3726C102.361 46.3992 102.417 46.4118 102.474 46.4089C102.881 46.3307 103.302 46.349 103.701 46.4623C104.101 46.5756 104.469 46.7808 104.775 47.0616C104.83 47.1196 104.903 47.1565 104.983 47.1657V47.1657Z" fill="#263238"></path> <path d="M85.0999 46.5509C84.8829 53.4661 84.6471 56.4081 87.7221 60.2678C92.3534 66.0667 100.739 64.7991 102.984 58.0636C105.002 51.9998 105.021 41.6696 98.6732 38.3208C92.3252 34.972 85.298 39.6168 85.0999 46.5509Z" fill="#B97964"></path> <path d="M85.4009 59.6149C78.619 58.4514 80.5621 54.166 80.5621 54.166C73.8839 52.8133 79.0434 49.5401 79.0434 49.5401C73.4877 47.1373 79.0434 44.9805 79.0434 44.9805C73.6858 40.5248 81.3261 38.9829 81.3261 38.9829C79.4396 32.0298 86.0423 34.8867 86.0423 34.8867C89.6267 28.9081 92.7205 34.6124 92.7205 34.6124C99.0026 26.0985 100.531 33.2786 100.531 33.2786C106.954 31.5852 104.492 38.3585 104.492 38.3585C109.774 39.7775 105.624 42.4641 105.624 42.4641C107.662 45.0467 100.295 45.4913 100.295 45.4913C100.295 45.4913 103.804 51.1672 100.295 52.7281L91.3717 59.5866C91.3717 59.5866 87.2497 57.9027 85.4009 59.6149Z" fill="#263238"></path> <path d="M92.0703 54.0336C92.0703 54.0336 96.7865 42.6817 93.0984 32.9948L96.2112 31.9258C96.2112 31.9258 100.277 46.0116 92.0703 54.0336Z" fill="#ff8562"></path> <path d="M96.7765 52.785C97.55 54.4121 97.8518 55.1216 98.9649 55.6229C99.3086 55.8207 99.7028 55.9127 100.098 55.8874C100.494 55.862 100.873 55.7205 101.189 55.4804C101.505 55.2404 101.743 54.9123 101.874 54.5373C102.005 54.1623 102.024 53.7568 101.927 53.3715C101.634 51.7444 100.389 49.351 98.663 49.3037C98.2594 49.3057 97.8636 49.4164 97.5172 49.6242C97.1708 49.832 96.8863 50.1293 96.6936 50.485C96.5008 50.8407 96.4068 51.2418 96.4214 51.6463C96.436 52.0509 96.5586 52.4441 96.7765 52.785V52.785Z" fill="#B97964"></path> <path d="M91.8998 76.4157C91.8998 76.4157 98.2856 81.1457 100.88 83.0377L119.358 74.2967C119.332 73.2693 119.615 72.2577 120.17 71.3939C120.725 70.53 121.527 69.8538 122.47 69.4532L123.791 68.9046L126.574 67.6558C127.092 67.4236 127.663 67.3328 128.227 67.3926C128.792 67.4524 129.331 67.6607 129.79 67.9964V67.9964C130.329 68.3904 130.733 68.9418 130.948 69.5751C131.162 70.2084 131.176 70.8928 130.988 71.5344V71.5344C130.6 72.8646 129.875 74.0712 128.883 75.0362C127.891 76.0012 126.666 76.6916 125.329 77.0401L122.631 77.7496C122.631 77.7496 106.794 89.7826 101.134 90.0664C95.4747 90.3502 87.1836 84.7783 87.1836 84.7783L91.8998 76.4157Z" fill="#B97964"></path> <path d="M76.544 68.4412C81.4206 68.4412 86.8725 71.4872 95.4089 77.0686C94.1829 81.0921 91.9027 84.7118 88.8062 87.5502C88.8062 87.5502 84.09 86.2826 77.8268 80.3701C70.2808 73.209 73.5539 68.4506 76.544 68.4412Z" fill="#263238"></path> <path d="M169.17 82.6119H122.951C122.562 82.6181 122.176 82.5415 121.819 82.3869C121.462 82.2324 121.142 82.0036 120.88 81.7156C120.618 81.4276 120.42 81.087 120.298 80.7164C120.177 80.3458 120.136 79.9536 120.178 79.5658L123.658 39.6639C123.741 38.8389 124.123 38.073 124.732 37.5116C125.34 36.9502 126.133 36.6321 126.96 36.6178H173.179C173.567 36.6114 173.953 36.688 174.309 36.8427C174.666 36.9973 174.986 37.2263 175.247 37.5145C175.509 37.8027 175.706 38.1434 175.826 38.514C175.946 38.8846 175.985 39.2766 175.943 39.6639L172.462 79.5658C172.379 80.3893 171.999 81.1538 171.392 81.715C170.785 82.2762 169.995 82.5953 169.17 82.6119V82.6119Z" fill="#ff8562"></path> <path opacity="0.4" d="M169.17 82.6119H122.951C122.562 82.6181 122.176 82.5415 121.819 82.3869C121.462 82.2324 121.142 82.0036 120.88 81.7156C120.618 81.4276 120.42 81.087 120.298 80.7164C120.177 80.3458 120.136 79.9536 120.178 79.5658L123.658 39.6639C123.741 38.8389 124.123 38.073 124.732 37.5116C125.34 36.9502 126.133 36.6321 126.96 36.6178H173.179C173.567 36.6114 173.953 36.688 174.309 36.8427C174.666 36.9973 174.986 37.2263 175.247 37.5145C175.509 37.8027 175.706 38.1434 175.826 38.514C175.946 38.8846 175.985 39.2766 175.943 39.6639L172.462 79.5658C172.379 80.3893 171.999 81.1538 171.392 81.715C170.785 82.2762 169.995 82.5953 169.17 82.6119V82.6119Z" fill="white"></path> <path opacity="0.7" d="M169.341 80.7203C169.653 80.7147 169.953 80.5941 170.183 80.3812C170.412 80.1684 170.556 79.8783 170.586 79.5661L174.066 39.6642C174.082 39.5176 174.067 39.3691 174.022 39.2288C173.976 39.0885 173.902 38.9595 173.802 38.8503C173.703 38.7412 173.582 38.6544 173.447 38.5957C173.312 38.5371 173.167 38.5079 173.019 38.5101H126.8C126.487 38.5154 126.186 38.6357 125.955 38.8484C125.723 39.0611 125.578 39.3513 125.546 39.6642L122.075 79.5661C122.058 79.7128 122.074 79.8613 122.119 80.0016C122.165 80.1419 122.239 80.2709 122.338 80.3801C122.437 80.4892 122.559 80.576 122.694 80.6347C122.829 80.6933 122.974 80.7225 123.122 80.7203H169.341Z" fill="white"></path> <path d="M137.223 57.2593L122.131 79.1684V79.5657C122.115 79.7124 122.13 79.8608 122.176 80.0012C122.221 80.1415 122.296 80.2705 122.395 80.3797C122.494 80.4888 122.615 80.5756 122.75 80.6343C122.885 80.6929 123.031 80.7221 123.178 80.7198H149.363L137.223 57.2593Z" fill="#ff8562"></path> <path opacity="0.3" d="M137.223 57.2593L122.131 79.1684V79.5657C122.115 79.7124 122.13 79.8608 122.176 80.0012C122.221 80.1415 122.296 80.2705 122.395 80.3797C122.494 80.4888 122.615 80.5756 122.75 80.6343C122.885 80.6929 123.031 80.7221 123.178 80.7198H149.363L137.223 57.2593Z" fill="white"></path> <path d="M170.718 78.0429L158.069 53.9485L139.336 80.72H169.341C169.653 80.7145 169.953 80.5938 170.183 80.381C170.412 80.1682 170.556 79.878 170.586 79.5659L170.718 78.0429Z" fill="#ff8562"></path> <path d="M153.183 49.6914C153.067 50.8445 152.534 51.9149 151.684 52.6996C150.833 53.4843 149.726 53.9287 148.57 53.9484C148.027 53.9583 147.487 53.852 146.987 53.6365C146.488 53.4209 146.04 53.1012 145.673 52.6984C145.306 52.2957 145.029 51.8192 144.86 51.3007C144.691 50.7822 144.634 50.2336 144.694 49.6914C144.807 48.5367 145.339 47.4639 146.19 46.6773C147.04 45.8906 148.149 45.4449 149.306 45.425C149.851 45.4149 150.391 45.5214 150.892 45.7375C151.392 45.9536 151.84 46.2742 152.207 46.6781C152.574 47.0819 152.851 47.5595 153.019 48.0792C153.188 48.5988 153.243 49.1485 153.183 49.6914V49.6914Z" fill="#ff8562"></path> <path opacity="0.4" d="M153.183 49.6914C153.067 50.8445 152.534 51.9149 151.684 52.6996C150.833 53.4843 149.726 53.9287 148.57 53.9484C148.027 53.9583 147.487 53.852 146.987 53.6365C146.488 53.4209 146.04 53.1012 145.673 52.6984C145.306 52.2957 145.029 51.8192 144.86 51.3007C144.691 50.7822 144.634 50.2336 144.694 49.6914C144.807 48.5367 145.339 47.4639 146.19 46.6773C147.04 45.8906 148.149 45.4449 149.306 45.425C149.851 45.4149 150.391 45.5214 150.892 45.7375C151.392 45.9536 151.84 46.2742 152.207 46.6781C152.574 47.0819 152.851 47.5595 153.019 48.0792C153.188 48.5988 153.243 49.1485 153.183 49.6914V49.6914Z" fill="white"></path> <path d="M37.8419 243.667L33.1445 257.63L40.3415 260.581L45.9727 247.697L37.8419 243.667Z" fill="#B97964"></path> <path d="M42.9262 260.231C42.8893 260.209 42.8592 260.177 42.8392 260.139C42.8193 260.1 42.8102 260.057 42.813 260.014C42.8183 259.972 42.8367 259.933 42.8655 259.903C42.8943 259.872 42.9321 259.851 42.9733 259.844C43.1243 259.844 46.52 259.049 47.7839 259.844C48.0229 259.99 48.1955 260.224 48.265 260.496C48.3178 260.648 48.3226 260.812 48.2787 260.966C48.2348 261.12 48.1443 261.257 48.0197 261.357C47.5387 261.698 46.4162 261.556 45.3881 261.234C44.5404 260.971 43.7167 260.636 42.9262 260.231V260.231ZM43.6431 260.165C45.124 260.827 47.218 261.461 47.765 261.045C47.8405 260.988 47.9348 260.894 47.8594 260.6C47.8447 260.515 47.8097 260.434 47.7571 260.365C47.7045 260.295 47.6361 260.24 47.5575 260.203C47.4463 260.133 47.3256 260.078 47.1991 260.042C46.0167 259.857 44.8099 259.898 43.6431 260.165V260.165Z" fill="#ff8562"></path> <path d="M42.8227 260.184C42.8045 260.152 42.7949 260.116 42.7949 260.08C42.7949 260.043 42.8045 260.007 42.8227 259.976C42.8227 259.881 43.766 257.705 45.0959 257.138C45.2857 257.058 45.4893 257.018 45.6949 257.018C45.9005 257.018 46.1041 257.058 46.2939 257.138C46.8127 257.355 46.8976 257.686 46.8504 257.914C46.7372 258.907 44.1904 260.089 43.0774 260.222C43.0642 260.228 43.0497 260.232 43.035 260.232C43.0202 260.232 43.0057 260.228 42.9925 260.222C42.9633 260.23 42.9324 260.231 42.9027 260.225C42.873 260.218 42.8455 260.204 42.8227 260.184V260.184ZM46.0203 257.507C45.7768 257.417 45.5093 257.417 45.2657 257.507C44.4261 258.03 43.7674 258.799 43.3792 259.711C44.596 259.418 46.3316 258.415 46.4542 257.819C46.4542 257.762 46.4542 257.611 46.1335 257.478H46.0203V257.507Z" fill="#ff8562"></path> <path d="M42.436 258.803L33.3996 255.965C33.2342 255.914 33.0563 255.921 32.8952 255.984C32.7342 256.048 32.5994 256.165 32.513 256.315L28.6079 263.183C28.5235 263.327 28.4685 263.487 28.446 263.653C28.4236 263.819 28.4342 263.988 28.4771 264.15C28.5201 264.312 28.5946 264.463 28.6964 264.596C28.7982 264.729 28.9252 264.84 29.0701 264.924C29.1472 264.971 29.2295 265.009 29.3154 265.037C32.5884 265.983 35.5408 266.702 39.5968 267.97C44.3885 269.445 42.9925 269.644 48.5954 271.47C51.9722 272.567 53.7832 268.887 52.3684 268.253C46.0392 265.415 45.9731 263.183 44.1621 260.033C43.7524 259.428 43.1398 258.992 42.436 258.803V258.803Z" fill="#263238"></path> <path opacity="0.2" d="M35.5879 250.365L43.1339 254.186L45.973 247.697L37.8423 243.667L35.5879 250.365Z" fill="#263238"></path> <path d="M69.7429 114.52C69.7429 114.52 59.603 122.287 61.7725 146.618C61.98 148.869 62.7157 151.225 62.7157 153.798C62.7157 155.51 62.2441 156.711 61.6876 160.562C60.8764 166.162 59.3861 187.049 57.8108 189.764C56.2356 192.479 55.5942 191.997 51.2081 199.489C46.4919 207.549 40.3607 221.682 35.6162 245.635C38.7842 247.877 42.4027 249.398 46.2183 250.09C46.2183 250.09 72.1293 209.11 77.6379 193.851C82.5711 180.2 88.4475 136.638 88.4475 136.638L88.9192 117.718L69.7429 114.52Z" fill="#ff8562"></path> <path opacity="0.1" d="M80.836 146.618H73.4975C73.4975 146.618 71.0828 169.776 79.0627 189.093C79.8928 185.99 80.7323 182.272 81.5529 178.252L84.7316 157.856C84.2789 154.413 83.9299 151.783 83.8733 151.613C83.7129 151.074 80.836 146.618 80.836 146.618Z" fill="black"></path> <path d="M79.6289 249.286L79.6761 264.129L88.0238 263.571L89.3066 249.286H79.6289Z" fill="#B97964"></path> <path d="M88.9855 263.316C88.9439 263.31 88.905 263.292 88.8745 263.263C88.844 263.234 88.8234 263.196 88.8158 263.155C88.806 263.113 88.81 263.069 88.827 263.03C88.844 262.991 88.8731 262.958 88.9101 262.937C89.0421 262.861 91.9945 261.045 93.4565 261.367C93.729 261.428 93.9683 261.59 94.1263 261.821C94.2238 261.948 94.2805 262.102 94.2889 262.263C94.2973 262.423 94.2571 262.583 94.1734 262.72C93.4477 263.265 92.5503 263.531 91.6455 263.467C90.7561 263.497 89.8658 263.446 88.9855 263.316ZM89.6458 263.022C91.2588 263.164 93.4188 263.07 93.8244 262.492C93.881 262.417 93.9282 262.294 93.7678 262.038C93.724 261.964 93.6639 261.901 93.5919 261.853C93.52 261.806 93.4382 261.775 93.3528 261.764C93.2246 261.745 93.0943 261.745 92.9661 261.764C91.788 261.962 90.6601 262.39 89.6458 263.022V263.022Z" fill="#ff8562"></path> <path d="M88.8723 263.315C88.8407 263.295 88.8147 263.267 88.7966 263.234C88.7785 263.201 88.7688 263.164 88.7686 263.126C88.7686 263.022 88.9289 260.667 89.9948 259.721C90.1467 259.581 90.3254 259.473 90.52 259.405C90.7146 259.337 90.921 259.309 91.1267 259.323C91.6926 259.323 91.8813 259.645 91.9096 259.881C92.1265 260.827 90.1174 262.804 89.0798 263.306C89.0523 263.315 89.0225 263.315 88.9949 263.306C88.9565 263.323 88.913 263.327 88.8723 263.315V263.315ZM91.004 259.721C90.7445 259.726 90.496 259.827 90.306 260.004C89.684 260.775 89.315 261.72 89.2496 262.71C90.2966 262.038 91.6077 260.515 91.5323 259.929C91.5323 259.872 91.4851 259.721 91.1172 259.702H91.004V259.721Z" fill="#ff8562"></path> <path d="M88.0612 262.133L78.6287 262.473C78.4565 262.481 78.292 262.547 78.1618 262.66C78.0317 262.773 77.9436 262.928 77.9118 263.097L76.4781 270.874C76.4144 271.203 76.484 271.545 76.6715 271.824C76.859 272.102 77.149 272.295 77.4779 272.359C77.5689 272.368 77.6606 272.368 77.7515 272.359C81.1566 272.17 84.175 271.876 88.4196 271.734C93.4283 271.555 92.1926 272.198 98.0691 272.075C101.625 271.99 102.125 267.922 100.616 267.78C93.7018 267.156 92.9095 265.094 90.1646 262.719C89.5602 262.269 88.8106 262.06 88.0612 262.133V262.133Z" fill="#263238"></path> <path opacity="0.2" d="M79.6572 256.968L88.6369 256.779L89.3066 249.286H79.6289L79.6572 256.968Z" fill="#263238"></path> <path d="M75.3937 111.824C75.3937 111.824 65.2727 125.267 72.7715 151.556L81.2607 189.954C81.2607 189.954 73.2054 207.417 77.4877 253.486C81.6384 254.071 85.8563 253.975 89.9763 253.203C89.9763 253.203 99.4088 204.55 100.833 188.118C102.408 170.012 101.465 115.438 101.465 115.438L75.3937 111.824Z" fill="#ff8562"></path> <path d="M81.5053 68.2519C81.5053 68.2519 79.9395 61.5354 89.9945 64.468C100.05 67.4005 99.2006 73.1427 99.2006 73.1427L81.5053 68.2519Z" fill="#263238"></path> <path opacity="0.4" d="M81.5053 68.2519C81.5053 68.2519 79.9395 61.5354 89.9945 64.468C100.05 67.4005 99.2006 73.1427 99.2006 73.1427L81.5053 68.2519Z" fill="black"></path> <path d="M106.445 85.0525C106.445 87.408 105.502 90.8136 104.558 94.6259C104.124 96.4328 103.728 98.3153 103.464 100.226C102.04 110.632 101.578 121.596 101.578 121.596C96.0269 122.81 90.2862 122.865 84.7134 121.757C79.1406 120.648 73.8552 118.401 69.1865 115.154C69.1865 115.154 73.1387 111.796 72.3275 88.5337C71.9597 78.0521 68.1867 65.5934 85.4576 67.5516C100.04 69.2071 104.945 73.7479 106.124 80.8523C106.124 80.9374 106.124 81.032 106.124 81.1266L106.209 81.7888C106.352 82.8711 106.43 83.9609 106.445 85.0525Z" fill="#263238"></path> <path opacity="0.4" d="M106.446 85.0529C106.446 87.4084 105.502 90.814 104.559 94.6264C100.616 89.8964 96.6641 80.9568 96.6641 80.9568L99.9183 76.1511L105.653 78.8283C105.851 79.4928 106.009 80.1689 106.125 80.8527C106.125 80.9378 106.125 81.0324 106.125 81.127L106.21 81.7892C106.352 82.8715 106.431 83.9613 106.446 85.0529Z" fill="black"></path> <path d="M112.454 80.9469C112.454 80.9469 118.113 86.5471 120.349 88.7986L139.911 82.9145C140.04 81.9002 140.468 80.9474 141.14 80.1788C141.812 79.4101 142.698 78.8606 143.684 78.6008L145.062 78.2413L148.005 77.4278C148.553 77.279 149.13 77.2767 149.68 77.4211C150.229 77.5654 150.731 77.8515 151.136 78.2508V78.2508C151.61 78.7195 151.929 79.3238 152.047 79.981C152.165 80.6382 152.078 81.3159 151.796 81.9212V81.9212C151.214 83.1786 150.317 84.2635 149.193 85.0707C148.07 85.8779 146.757 86.38 145.382 86.5282L142.609 86.8215C142.609 86.8215 125.15 96.3854 119.528 95.8557C113.906 95.3259 106.521 88.5432 106.521 88.5432L112.454 80.9469Z" fill="#B97964"></path> <path d="M98.3986 70.7586C103.228 71.4681 108.161 75.3183 115.82 82.1105C114.006 85.9097 111.208 89.1506 107.718 91.4947C107.718 91.4947 103.256 89.5366 97.9364 82.7538C91.5035 74.5426 95.4746 70.3235 98.3986 70.7586Z" fill="#263238"></path> </g> </g> <defs> <clipPath id="clip0"> <rect width="365" height="287" fill="white"></rect> </clipPath> <clipPath id="clip1"> <rect width="366" height="287" fill="white"></rect> </clipPath> </defs> </svg> 