<?xml version="1.0" encoding="UTF-8"?> <svg xmlns="http://www.w3.org/2000/svg" width="70" height="58" viewBox="0 0 70 58" fill="none"> <g clip-path="url(#clip0)"> <path d="M15.7904 11.4861H7.89361C7.32715 11.4861 6.86816 11.9451 6.86816 12.5116C6.86816 13.078 7.32715 13.537 7.89361 13.537H15.7904C16.3568 13.537 16.8158 13.078 16.8158 12.5116C16.8158 11.9451 16.3568 11.4861 15.7904 11.4861Z" fill="#0B3B57"></path> <path d="M15.7904 16.0487H7.89361C7.32715 16.0487 6.86816 16.5077 6.86816 17.0741C6.86816 17.6406 7.32715 18.0996 7.89361 18.0996H15.7904C16.3568 18.0996 16.8158 17.6406 16.8158 17.0741C16.8158 16.5077 16.3568 16.0487 15.7904 16.0487Z" fill="#0B3B57"></path> <path d="M15.7904 20.6109H7.89361C7.32715 20.6109 6.86816 21.0699 6.86816 21.6363C6.86816 22.2028 7.32715 22.6618 7.89361 22.6618H15.7904C16.3568 22.6618 16.8158 22.2028 16.8158 21.6363C16.8158 21.0699 16.3568 20.6109 15.7904 20.6109Z" fill="#0B3B57"></path> <path d="M15.7904 25.1733H7.89361C7.32715 25.1733 6.86816 25.6323 6.86816 26.1988C6.86816 26.7652 7.32715 27.2242 7.89361 27.2242H15.7904C16.3568 27.2242 16.8158 26.7652 16.8158 26.1988C16.8158 25.6323 16.3568 25.1733 15.7904 25.1733Z" fill="#0B3B57"></path> <path d="M15.7904 29.7358H7.89361C7.32715 29.7358 6.86816 30.1948 6.86816 30.7612C6.86816 31.3277 7.32715 31.7867 7.89361 31.7867H15.7904C16.3568 31.7867 16.8158 31.3277 16.8158 30.7612C16.8158 30.1948 16.3568 29.7358 15.7904 29.7358Z" fill="#0B3B57"></path> <path d="M15.7904 34.298H7.89361C7.32715 34.298 6.86816 34.757 6.86816 35.3235C6.86816 35.8899 7.32715 36.3489 7.89361 36.3489H15.7904C16.3568 36.3489 16.8158 35.8899 16.8158 35.3235C16.8158 34.757 16.3568 34.298 15.7904 34.298Z" fill="#0B3B57"></path> <path d="M15.7904 38.8605H7.89361C7.32715 38.8605 6.86816 39.3195 6.86816 39.8859C6.86816 40.4524 7.32715 40.9114 7.89361 40.9114H15.7904C16.3568 40.9114 16.8158 40.4524 16.8158 39.8859C16.8158 39.3195 16.3568 38.8605 15.7904 38.8605Z" fill="#0B3B57"></path> <path d="M15.7904 43.423H7.89361C7.32715 43.423 6.86816 43.882 6.86816 44.4484C6.86816 45.0149 7.32715 45.4739 7.89361 45.4739H15.7904C16.3568 45.4739 16.8158 45.0149 16.8158 44.4484C16.8158 43.882 16.3568 43.423 15.7904 43.423Z" fill="#0B3B57"></path> <path d="M66.6292 10.229H50.8755V2.50451C50.8755 1.06711 49.7061 -0.102173 48.2689 -0.102173H3.37133C1.93393 -0.102173 0.764648 1.06724 0.764648 2.50451V48.7285C0.764648 50.1658 1.93407 51.3351 3.37133 51.3351H19.1252V55.1432C19.1252 56.5806 20.2946 57.7498 21.7318 57.7498H66.6292C68.0666 57.7498 69.2359 56.5804 69.2359 55.1432V12.8358C69.2361 11.3984 68.0666 10.229 66.6292 10.229V10.229ZM11.4707 1.94872H48.2687C48.5751 1.94872 48.8245 2.1981 48.8245 2.50451V5.62487H11.4707V1.94872ZM2.89128 2.50451C2.89128 2.1981 3.14067 1.94872 3.44708 1.94872H9.41981V5.625H2.89128V2.50451ZM67.1852 55.1432C67.1852 55.4496 66.9358 55.699 66.6294 55.699H21.7318C21.4254 55.699 21.1761 55.4496 21.1761 55.1432V40.3363C21.1761 39.7698 20.7171 39.3109 20.1506 39.3109C19.5842 39.3109 19.1252 39.7698 19.1252 40.3363V49.2842H3.37133C3.06493 49.2842 2.81554 49.0349 2.81554 48.7285V7.67576H48.8246V10.229H21.8076H21.7318C20.2944 10.229 19.1252 11.3984 19.1252 12.8357V35.568C19.1252 36.1344 19.5842 36.5934 20.1506 36.5934C20.7171 36.5934 21.1761 36.1344 21.1761 35.568V18.007H67.1852V55.1432ZM27.7803 12.2799V15.9562H21.2518V12.8358C21.2518 12.5294 21.5012 12.28 21.8076 12.28H27.7803V12.2799ZM67.1852 15.9562H29.8312V12.2799H66.6294C66.9358 12.2799 67.1852 12.5293 67.1852 12.8357V15.9562Z" fill="#0B3B57"></path> <path d="M30.7713 44.5481C31.3291 45.0729 32.0583 45.3618 32.8242 45.3618C34.0557 45.3618 35.1475 44.6232 35.6055 43.48C36.0637 42.337 35.7842 41.0488 34.8935 40.1982L31.3897 36.8529L34.8933 33.5075C35.7842 32.6571 36.0637 31.3689 35.6057 30.2258C35.1475 29.0827 34.0557 28.3439 32.8242 28.3439C32.0583 28.3439 31.3291 28.6328 30.7712 29.1577L24.7763 34.7969C24.2115 35.3282 23.8877 36.0774 23.8877 36.8527C23.8877 37.628 24.2115 38.3773 24.7763 38.9086L30.7713 44.5481ZM26.1814 36.2909L32.1763 30.6519C32.3523 30.4862 32.5825 30.395 32.8241 30.395C33.4176 30.395 33.646 30.8494 33.7018 30.9888C33.7575 31.1281 33.9063 31.6144 33.4768 32.0242L29.5533 35.7705C29.2592 36.0516 29.0904 36.4459 29.0904 36.8528C29.0904 37.2598 29.2591 37.6541 29.5535 37.9355L33.4768 41.6816C33.9063 42.0915 33.7575 42.5778 33.7018 42.717C33.646 42.8564 33.4176 43.3108 32.8241 43.3108C32.5824 43.3108 32.3523 43.2196 32.1763 43.054L26.1814 37.4149C26.0247 37.2675 25.9386 37.0679 25.9386 36.8528C25.9386 36.638 26.0249 36.4384 26.1814 36.2909Z" fill="#0B3B57"></path> <path d="M52.7555 43.4799C53.2136 44.623 54.3053 45.3617 55.5367 45.3617C56.3027 45.3617 57.0318 45.0728 57.5898 44.5479L63.5847 38.9088C64.1495 38.3775 64.4733 37.6282 64.4733 36.8528C64.4733 36.0776 64.1495 35.3283 63.5847 34.797L57.5897 29.1578C57.0318 28.633 56.3027 28.3441 55.5367 28.3441C54.3053 28.3441 53.2136 29.0827 52.7555 30.226C52.2973 31.369 52.5769 32.6573 53.4675 33.5077L56.9713 36.853L53.4675 40.1984C52.5768 41.0487 52.2973 42.3369 52.7555 43.4799V43.4799ZM54.8839 41.6816L58.8071 37.9356C59.1015 37.6545 59.2704 37.26 59.2704 36.8528C59.2704 36.4458 59.1016 36.0514 58.8072 35.7702L54.8837 32.0242C54.4544 31.6145 54.6033 31.128 54.6591 30.9888C54.7149 30.8496 54.9431 30.395 55.5366 30.395C55.7783 30.395 56.0084 30.4862 56.1844 30.6518L62.1793 36.2909C62.336 36.4383 62.4221 36.6379 62.4221 36.8528C62.4221 37.0679 62.3358 37.2675 62.1793 37.4149L56.1844 43.0539C56.0084 43.2196 55.7782 43.3108 55.5366 43.3108C54.9431 43.3108 54.7149 42.8563 54.6591 42.717C54.6033 42.5777 54.4544 42.0915 54.8839 41.6816V41.6816Z" fill="#0B3B57"></path> <path d="M41.012 45.052C42.2095 45.052 43.3095 44.3596 43.8291 43.2836L49.8878 32.87C49.9039 32.8422 49.919 32.8136 49.9324 32.7844C50.3821 31.8109 50.3056 30.6903 49.7278 29.7868C49.15 28.8834 48.1648 28.3441 47.0924 28.3441C45.8946 28.3441 44.7948 29.0363 44.2753 30.1125L38.2166 40.5259C38.2003 40.5537 38.1854 40.5823 38.172 40.6115C37.7223 41.5851 37.7989 42.7058 38.3766 43.6092C38.9544 44.5126 39.9395 45.052 41.012 45.052V45.052ZM40.0174 41.509L46.0699 31.1062C46.0861 31.0784 46.101 31.0497 46.1144 31.0205C46.29 30.6406 46.6739 30.3951 47.0924 30.3951C47.4673 30.3951 47.7982 30.5761 48.0002 30.8921C48.1949 31.1964 48.2258 31.5567 48.0871 31.887L42.0347 42.2898C42.0185 42.3176 42.0035 42.3462 41.9901 42.3754C41.8145 42.7554 41.4305 43.0011 41.0121 43.0011C40.6372 43.0011 40.3063 42.8201 40.1044 42.5042C39.9097 42.1997 39.8786 41.8393 40.0174 41.509V41.509Z" fill="#0B3B57"></path> </g> <defs> <clipPath id="clip0"> <rect width="70" height="57.75" fill="white"></rect> </clipPath> </defs> </svg> 