<?xml version="1.0" encoding="UTF-8"?> <svg xmlns="http://www.w3.org/2000/svg" width="365" height="287" viewBox="0 0 365 287" fill="none"> <g clip-path="url(#clip0)"> <path d="M183 286.889C270.38 286.889 341.215 282.753 341.215 277.652C341.215 272.55 270.38 268.415 183 268.415C95.6211 268.415 24.7861 272.55 24.7861 277.652C24.7861 282.753 95.6211 286.889 183 286.889Z" fill="#F5F5F5"></path> <path d="M243.548 19.8286V117.577C243.549 119.165 243.237 120.737 242.63 122.204C242.024 123.672 241.134 125.005 240.011 126.128C238.889 127.251 237.556 128.142 236.09 128.75C234.623 129.358 233.051 129.67 231.463 129.67H221.761V19.8286H243.548Z" fill="#ff8562"></path> <path opacity="0.8" d="M243.548 19.8286V117.577C243.549 119.165 243.237 120.737 242.63 122.204C242.024 123.672 241.134 125.005 240.011 126.128C238.889 127.251 237.556 128.142 236.09 128.75C234.623 129.358 233.051 129.67 231.463 129.67H221.761V19.8286H243.548Z" fill="white"></path> <path d="M243.545 12.4029V117.577C243.546 119.165 243.234 120.737 242.627 122.204C242.021 123.672 241.131 125.005 240.008 126.128C238.886 127.251 237.553 128.142 236.087 128.75C234.62 129.357 233.048 129.67 231.46 129.67H60.6468C57.4395 129.67 54.3636 128.396 52.0957 126.128C49.8278 123.86 48.5537 120.784 48.5537 117.577V12.4029C48.5526 10.8145 48.8647 9.24152 49.4721 7.77383C50.0794 6.30615 50.9702 4.97258 52.0933 3.84942C53.2165 2.72625 54.55 1.83552 56.0177 1.22817C57.4854 0.62081 59.0584 0.308744 60.6468 0.309817H231.46C233.048 0.309817 234.62 0.62267 236.087 1.23051C237.553 1.83834 238.886 2.72925 240.008 3.85231C241.131 4.97536 242.021 6.30856 242.627 7.77571C243.234 9.24287 243.546 10.8152 243.545 12.4029Z" fill="white" stroke="#ff8562" stroke-miterlimit="10"></path> <path d="M242.993 8.77174H49.1113C49.884 6.31715 51.4196 4.17304 53.4947 2.6512C55.5698 1.12936 58.0762 0.309141 60.6496 0.309815H231.463C234.035 0.310877 236.539 1.1319 238.613 2.65361C240.686 4.17533 242.221 6.31848 242.993 8.77174V8.77174Z" fill="#ff8562"></path> <path d="M73.199 6.25851C74.1453 6.25851 74.9126 5.4913 74.9126 4.54491C74.9126 3.59851 74.1453 2.8313 73.199 2.8313C72.2526 2.8313 71.4854 3.59851 71.4854 4.54491C71.4854 5.4913 72.2526 6.25851 73.199 6.25851Z" fill="white"></path> <path d="M79.3191 6.25851C80.2655 6.25851 81.0327 5.4913 81.0327 4.54491C81.0327 3.59851 80.2655 2.8313 79.3191 2.8313C78.3727 2.8313 77.6055 3.59851 77.6055 4.54491C77.6055 5.4913 78.3727 6.25851 79.3191 6.25851Z" fill="white"></path> <path d="M87.1447 4.54478C87.1447 4.88566 87.0435 5.21886 86.8539 5.50218C86.6644 5.7855 86.395 6.00616 86.0799 6.13624C85.7648 6.26631 85.4182 6.29993 85.084 6.23283C84.7498 6.16573 84.443 6.00094 84.2026 5.75933C83.9621 5.51772 83.7988 5.21017 83.7333 4.87564C83.6678 4.54112 83.703 4.19468 83.8346 3.88022C83.9662 3.56575 84.1881 3.29741 84.4723 3.10921C84.7565 2.921 85.0902 2.8214 85.4311 2.82302C85.6568 2.82301 85.8803 2.86761 86.0887 2.95423C86.2972 3.04086 86.4865 3.16781 86.6457 3.3278C86.8049 3.48779 86.931 3.67766 87.0166 3.8865C87.1022 4.09535 87.1458 4.31906 87.1447 4.54478V4.54478Z" fill="white"></path> <path d="M243.547 12.4029V19.8285H48.5234V12.4029C48.5233 11.1714 48.7104 9.94701 49.0783 8.77173H242.96C243.339 9.9453 243.537 11.1697 243.547 12.4029V12.4029Z" fill="#ff8562"></path> <path opacity="0.5" d="M243.547 12.4029V19.8285H48.5234V12.4029C48.5233 11.1714 48.7104 9.94701 49.0783 8.77173H242.96C243.339 9.9453 243.537 11.1697 243.547 12.4029V12.4029Z" fill="white"></path> <path d="M71.4934 19.8286V129.67H60.3795C57.7658 129.692 55.2127 128.883 53.0879 127.361C50.9631 125.839 49.3762 123.682 48.5557 121.2V19.8286H71.4934Z" fill="#ff8562"></path> <path opacity="0.1" d="M71.4934 19.8286V129.67H60.3795C57.7658 129.692 55.2127 128.883 53.0879 127.361C50.9631 125.839 49.3762 123.682 48.5557 121.2V19.8286H71.4934Z" fill="black"></path> <path opacity="0.1" d="M214.114 27.6133H79.3193V118.589H214.114V27.6133Z" fill="#ff8562"></path> <path opacity="0.2" d="M57.8668 32.199H52.0732V37.9926H57.8668V32.199Z" fill="black"></path> <path opacity="0.2" d="M66.6383 32.199H60.8447V37.9926H66.6383V32.199Z" fill="black"></path> <path d="M160.201 72.7379C165.138 66.3405 168.361 57.9439 167.692 49.7431C167.064 42.0482 160.854 37.3562 153.314 39.2003C150.132 40.0163 147.218 41.5667 144.281 43.0274C139.385 45.4754 134.228 47.5643 128.777 48.2253C123.326 48.8863 117.932 48.2253 112.62 50.3061C103.375 53.9128 100.804 65.7285 104.37 74.2965C107.536 81.9016 115.076 87.7768 123.097 89.4088" stroke="#263238" stroke-linecap="round" stroke-linejoin="round"></path> <path opacity="0.2" d="M57.8668 41.3872H52.0732V47.1808H57.8668V41.3872Z" fill="black"></path> <path opacity="0.2" d="M66.6383 41.3872H60.8447V47.1808H66.6383V41.3872Z" fill="black"></path> <path opacity="0.2" d="M57.8668 50.5754H52.0732V56.369H57.8668V50.5754Z" fill="black"></path> <path opacity="0.2" d="M66.6383 50.5754H60.8447V56.369H66.6383V50.5754Z" fill="black"></path> <path opacity="0.2" d="M57.8668 59.7637H52.0732V65.5573H57.8668V59.7637Z" fill="black"></path> <path opacity="0.2" d="M66.6383 59.7637H60.8447V65.5573H66.6383V59.7637Z" fill="black"></path> <path opacity="0.2" d="M57.8668 68.9436H52.0732V74.7372H57.8668V68.9436Z" fill="black"></path> <path opacity="0.2" d="M66.6383 68.9436H60.8447V74.7372H66.6383V68.9436Z" fill="black"></path> <path opacity="0.2" d="M57.8668 78.1318H52.0732V83.9254H57.8668V78.1318Z" fill="black"></path> <path opacity="0.2" d="M66.6383 78.1318H60.8447V83.9254H66.6383V78.1318Z" fill="black"></path> <path d="M57.6793 87.0587C57.6793 87.1898 57.6404 87.3179 57.5674 87.4268C57.4944 87.5356 57.3907 87.6203 57.2694 87.6701C57.1482 87.7199 57.0148 87.7325 56.8864 87.7063C56.758 87.6801 56.6402 87.6164 56.5481 87.5231C56.456 87.4299 56.3937 87.3113 56.3691 87.1826C56.3446 87.0538 56.3588 86.9207 56.4101 86.8001C56.4614 86.6794 56.5474 86.5768 56.6571 86.5052C56.7669 86.4335 56.8955 86.3961 57.0265 86.3978C57.113 86.3977 57.1985 86.4149 57.2783 86.4482C57.358 86.4815 57.4303 86.5303 57.4911 86.5918C57.5518 86.6533 57.5997 86.7262 57.632 86.8064C57.6643 86.8865 57.6804 86.9723 57.6793 87.0587V87.0587Z" fill="#263238"></path> <path d="M60.0534 87.0587C60.0534 87.1894 60.0146 87.3172 59.942 87.4259C59.8693 87.5346 59.7661 87.6193 59.6453 87.6694C59.5246 87.7194 59.3917 87.7325 59.2635 87.707C59.1352 87.6815 59.0175 87.6185 58.925 87.5261C58.8326 87.4336 58.7696 87.3159 58.7441 87.1877C58.7186 87.0594 58.7317 86.9266 58.7818 86.8058C58.8318 86.685 58.9165 86.5818 59.0252 86.5091C59.1339 86.4365 59.2617 86.3978 59.3924 86.3978C59.4795 86.3967 59.5659 86.413 59.6466 86.4458C59.7273 86.4787 59.8006 86.5273 59.8622 86.5889C59.9238 86.6505 59.9725 86.7238 60.0053 86.8045C60.0381 86.8852 60.0545 86.9716 60.0534 87.0587V87.0587Z" fill="#263238"></path> <path d="M62.4196 87.0587C62.4196 87.1898 62.3806 87.3179 62.3076 87.4268C62.2346 87.5356 62.1309 87.6203 62.0096 87.6701C61.8884 87.7199 61.7551 87.7325 61.6266 87.7063C61.4982 87.6801 61.3805 87.6164 61.2884 87.5231C61.1962 87.4299 61.134 87.3113 61.1094 87.1826C61.0848 87.0538 61.0991 86.9207 61.1503 86.8001C61.2016 86.6794 61.2876 86.5768 61.3974 86.5052C61.5071 86.4335 61.6357 86.3961 61.7668 86.3978C61.8532 86.3977 61.9388 86.4149 62.0185 86.4482C62.0982 86.4815 62.1706 86.5303 62.2313 86.5918C62.292 86.6533 62.3399 86.7262 62.3722 86.8064C62.4046 86.8865 62.4207 86.9723 62.4196 87.0587V87.0587Z" fill="#263238"></path> <path d="M143.098 80.8653L142.062 81.5915L141.441 77.0627L145.219 79.3639L144.281 80.0003L145.742 82.1546L144.591 83.1011L143.098 80.8653Z" fill="#263238"></path> <path d="M222.249 130.649C222.249 130.649 218.087 150.739 215.272 155.872C212.457 161.005 196.317 160.768 196.317 160.768L177.63 159.838C177.63 159.838 174.072 148.193 189.307 154.232C189.307 154.232 202.159 151.784 207.063 147.704L212.204 126.626L222.249 130.649Z" fill="#EBB376"></path> <path d="M277.859 280.418H272.873L259.344 206.823L258.879 204.285L263.693 203.396L264.322 206.823L277.859 280.418Z" fill="#ff8562"></path> <path opacity="0.5" d="M277.859 280.418H272.873L259.344 206.823L258.879 204.285L263.693 203.396L264.322 206.823L277.859 280.418Z" fill="white"></path> <path d="M256.358 280.418H251.438L244.681 206.823L243.963 198.989L243.8 197.251L248.671 196.802L248.875 198.989L249.593 206.823L256.358 280.418Z" fill="#ff8562"></path> <path opacity="0.5" d="M256.358 280.418H251.438L244.681 206.823L243.963 198.989L243.8 197.251L248.671 196.802L248.875 198.989L249.593 206.823L256.358 280.418Z" fill="white"></path> <path d="M206.043 199.92L205.521 206.823L199.923 280.418H195.011L200.6 206.823L201.155 199.552L206.043 199.92Z" fill="#ff8562"></path> <path opacity="0.5" d="M206.043 199.92L205.521 206.823L199.923 280.418H195.011L200.6 206.823L201.155 199.552L206.043 199.92Z" fill="white"></path> <path d="M191.853 200.14L190.751 206.823L178.618 280.418H173.656L185.798 206.823L187.031 199.34L191.853 200.14Z" fill="#ff8562"></path> <path opacity="0.5" d="M191.853 200.14L190.751 206.823L178.618 280.418H173.656L185.798 206.823L187.031 199.34L191.853 200.14Z" fill="white"></path> <path d="M271.878 197.839L271.43 198.989L269.283 204.416C269.007 205.128 268.522 205.739 267.891 206.169C267.26 206.599 266.514 206.827 265.75 206.823H184.917C184.133 206.825 183.367 206.584 182.725 206.134C182.082 205.684 181.594 205.047 181.327 204.31L179.426 198.989L178.977 197.725C178.771 197.151 178.706 196.536 178.788 195.932C178.871 195.329 179.097 194.753 179.448 194.256C179.8 193.758 180.266 193.352 180.807 193.072C181.349 192.793 181.95 192.647 182.559 192.649H268.345C268.964 192.648 269.574 192.799 270.122 193.088C270.669 193.378 271.138 193.796 271.486 194.308C271.835 194.82 272.053 195.409 272.121 196.025C272.189 196.64 272.106 197.263 271.878 197.839V197.839Z" fill="#ff8562"></path> <path opacity="0.3" d="M271.43 198.99L269.284 204.416C269.008 205.128 268.522 205.739 267.891 206.169C267.26 206.599 266.514 206.827 265.75 206.823H184.917C184.133 206.825 183.367 206.584 182.725 206.134C182.082 205.684 181.594 205.047 181.327 204.31L179.426 198.99H271.43Z" fill="black"></path> <path d="M189.569 245.909L193.388 237.235C193.609 236.73 194.007 236.322 194.507 236.088C195.007 235.854 195.574 235.809 196.105 235.962L202.143 237.676C202.459 237.766 202.752 237.924 203.001 238.137C203.251 238.351 203.452 238.615 203.59 238.913C203.729 239.211 203.802 239.536 203.804 239.864C203.806 240.193 203.738 240.518 203.604 240.818C201.972 244.506 198.871 251.377 197.892 253.833C196.562 257.252 195.444 261.373 193.665 262.523C193.556 262.595 193.441 262.658 193.322 262.711C192.948 262.865 192.538 262.915 192.137 262.857C191.736 262.799 191.359 262.634 191.043 262.379C190.728 262.125 190.487 261.791 190.345 261.411C190.203 261.032 190.166 260.621 190.238 260.222C190.711 257.35 191.225 251.98 189.495 247.647C189.39 247.368 189.342 247.07 189.355 246.771C189.367 246.472 189.44 246.179 189.569 245.909Z" fill="#263238"></path> <path d="M222.543 163.461C222.543 163.461 181.294 157.83 168.834 169.548C168.834 169.548 161.114 180.083 164.827 200.703C167.256 213.429 172.531 225.441 180.258 235.84L191.086 226.636C191.086 226.636 181.449 202.898 184.713 188.21L199.695 187.321L221.18 172.633L223.432 166.545L222.543 163.461Z" fill="#263238"></path> <path d="M181.253 239.985L177.214 235.081L192.016 222.906L194.815 225.819L181.253 239.985Z" fill="#ff8562"></path> <path d="M263.09 163.012C263.09 163.012 264.233 174.762 260.504 183.363C256.775 191.964 243.596 195.113 234.71 194.542C225.824 193.971 214.359 193.237 209.487 194.608C209.487 194.608 203.18 230.373 192.286 256.452L179.1 255.31C179.1 255.31 186.264 204.832 187.415 193.106C188.565 181.38 187.986 179.634 195.15 173.906C202.315 168.177 239.01 160.433 263.09 163.012Z" fill="#263238"></path> <path d="M188.932 261.177L187.683 266.636L177.214 270.3L180.258 258.672L188.932 261.177Z" fill="#EBB376"></path> <path d="M177.075 269.957L185.97 266.652C186.488 266.461 187.058 266.464 187.574 266.661C188.09 266.857 188.517 267.234 188.777 267.721L191.747 273.245C191.908 273.536 192.004 273.859 192.028 274.19C192.052 274.522 192.003 274.855 191.885 275.166C191.767 275.476 191.582 275.758 191.344 275.99C191.106 276.222 190.82 276.399 190.507 276.509C186.712 277.888 179.638 280.467 177.214 281.495C173.836 282.931 170.099 284.996 168.034 284.514C167.907 284.488 167.781 284.452 167.659 284.408C167.287 284.245 166.966 283.986 166.728 283.656C166.491 283.327 166.347 282.94 166.31 282.536C166.273 282.131 166.346 281.725 166.52 281.358C166.694 280.991 166.963 280.678 167.3 280.451C169.691 278.819 173.901 275.424 175.802 271.165C175.922 270.888 176.096 270.638 176.315 270.43C176.534 270.223 176.792 270.062 177.075 269.957V269.957Z" fill="#263238"></path> <path d="M222.249 166.162C222.249 166.162 216.88 130.649 215.721 122.008C214.562 113.367 215.721 108.952 218.985 106.12C222.249 103.289 237.215 97.2423 247.259 98.8743C257.304 100.506 262.209 108.919 263.579 118.458L261.246 119.625C261.246 119.625 264.232 152.722 263.147 164.171L222.249 166.162Z" fill="#ff8562"></path> <path d="M218.977 106.096C218.977 106.096 211.037 113.105 211.037 126.651L223.416 131.392L218.977 106.096Z" fill="#ff8562"></path> <path d="M261.434 119.495C261.434 119.495 265.93 135.39 264.698 141.959C263.466 148.528 252.278 157.341 236.725 160.278C236.725 160.278 229.814 161.486 225.832 158.206L219.785 156.476L221.515 151.115C226.123 151.196 230.661 152.262 234.824 154.24C234.824 154.24 249.683 147.5 254.351 142.318C254.351 142.318 253.829 131.775 251.242 124.366L261.434 119.495Z" fill="#EBB376"></path> <path d="M194.121 256.452L176.765 253.841L176.137 259.3L191.886 262.515L194.121 256.452Z" fill="#ff8562"></path> <path d="M210.279 84.2108C209.204 87.3473 209.338 90.772 210.654 93.8151C210.043 91.3879 210.156 88.8346 210.981 86.4711C211.797 84.2353 213.143 82.2687 214.187 80.1471C215.232 78.0255 215.942 75.5531 215.248 73.2927C215.101 72.8439 214.775 72.3217 214.31 72.3951C213.845 72.4686 213.747 72.8603 213.616 73.2111C213.166 74.1409 212.821 75.118 212.588 76.1243C212.474 76.8995 212.588 77.6665 212.474 78.458C212.09 80.4491 210.956 82.2606 210.279 84.2108Z" fill="#263238"></path> <path d="M215.085 77.3321C214.458 77.5686 213.91 77.9761 213.503 78.5084C213.096 79.0406 212.847 79.6763 212.783 80.3431C211.567 79.5595 210.662 78.3756 210.226 76.996C209.789 75.6164 209.848 74.1277 210.393 72.7869C212.278 67.8909 214.832 60.9468 222.437 61.9586C230.042 62.9705 245.986 65.2226 240.274 82.2117C234.562 99.2009 228.899 78.45 228.899 78.45L215.085 77.3321Z" fill="#263238"></path> <path d="M231.723 109.083C224.795 108.65 227.732 102.677 228.051 100.466C228.135 99.501 227.924 98.5335 227.447 97.6912C227.124 97.0656 226.73 96.4796 226.272 95.945C223.236 95.945 219.874 95.537 217.467 93.497C214.774 91.253 213.705 87.0669 213.265 83.7458C212.919 80.6735 212.859 77.5757 213.085 74.4923C213.085 74.0354 213.151 73.5866 213.167 73.1378C213.273 71.3671 213.387 69.6045 213.453 67.8746C213.453 67.8746 220.168 66.3976 226.166 67.7685C230.605 68.7803 233.722 72.4686 235.068 78.2704C235.564 80.48 235.813 82.7378 235.811 85.0024C235.933 94.6475 239.711 96.3366 241.188 99.1682C242.665 102 238.667 109.491 231.723 109.083Z" fill="#EBB376"></path> <path d="M219.345 85.8348L217.713 79.625L216.595 86.153C216.595 86.153 217.5 86.8956 219.345 85.8348Z" fill="#D58745"></path> <path d="M224.143 86.8955C224.143 86.8955 223.123 89.0824 219.875 89.4659" stroke="#263238" stroke-width="0.5" stroke-linecap="round" stroke-linejoin="round"></path> <path d="M223.799 76.3773C223.357 75.8899 222.775 75.5503 222.133 75.4044C221.49 75.2585 220.819 75.3132 220.209 75.5613" stroke="#263238" stroke-width="0.75" stroke-linecap="round" stroke-linejoin="round"></path> <path d="M221.221 79.421C221.279 80.0494 221.646 80.5308 222.037 80.4982C222.429 80.4655 222.707 79.927 222.658 79.2987C222.609 78.6703 222.233 78.1889 221.842 78.2215C221.45 78.2542 221.172 78.7927 221.221 79.421Z" fill="#263238"></path> <path d="M214.008 81.1999C214.065 81.8283 214.432 82.3097 214.824 82.277C215.215 82.2444 215.493 81.7058 215.444 81.0775C215.395 80.4492 215.02 79.9596 214.628 80.0004C214.236 80.0412 214.008 80.5716 214.008 81.1999Z" fill="#263238"></path> <path d="M212.963 73.2358C215.58 72.6376 218.038 71.4826 220.168 69.8494C222.567 77.7809 232.784 78.0665 235.338 78.0665C233.999 72.2647 230.784 68.2337 226.362 67.2218C220.372 65.851 213.306 67.434 213.306 67.434C213.24 69.1721 213.061 71.4732 212.963 73.2358Z" fill="#263238"></path> <path d="M221.841 78.2213L220.168 77.9031C220.168 77.9031 220.6 79.1189 221.841 78.2213Z" fill="#263238"></path> <path d="M214.962 80.033L213.289 79.7229C213.289 79.7229 213.722 80.9306 214.962 80.033Z" fill="#263238"></path> <path d="M237.044 63.226C237.877 59.7782 235.618 56.2753 231.999 55.4018C228.381 54.5284 224.773 56.6153 223.94 60.063C223.108 63.5107 225.367 67.0137 228.986 67.8871C232.604 68.7606 236.212 66.6737 237.044 63.226Z" fill="#263238"></path> <path d="M217.982 71.008L216.627 72.7869C216.627 72.7869 220.209 72.1667 221.001 69.7187C221.792 67.2707 218.806 69.1883 218.806 69.1883L217.982 71.008Z" fill="#263238"></path> <path opacity="0.1" d="M230.85 94.0029C229.973 95.4468 228.816 96.7008 227.448 97.6913C227.125 97.0657 226.73 96.4797 226.272 95.945C227.887 95.53 229.43 94.8754 230.85 94.0029Z" fill="black"></path> <path d="M212.474 78.409C212.66 77.8284 213.046 77.3324 213.562 77.0084C214.079 76.6844 214.693 76.5533 215.297 76.6383" stroke="#263238" stroke-width="0.75" stroke-linecap="round" stroke-linejoin="round"></path> <path d="M233.249 79.062C233.473 78.7288 233.727 78.4174 234.008 78.1317C234.963 77.1607 236.521 75.8878 237.966 76.5977C239.712 77.4137 239.345 79.9025 238.855 81.4039C238.461 82.7478 237.56 83.8859 236.342 84.5782C234.62 85.4676 232.058 84.9943 232.074 82.6769C232.102 81.3825 232.51 80.125 233.249 79.062V79.062Z" fill="#EBB376"></path> <path d="M235.068 76.3935C235.068 76.3935 232.212 81.2079 233.379 85.4674C234.546 89.727 233.901 91.7343 233.093 93.9946C233.093 93.9946 233.412 87.5238 232.073 85.19C230.033 81.6241 232.889 76.3772 232.889 76.3772L235.068 76.3935Z" fill="#263238"></path> <path d="M224.036 62.032C224.036 62.032 231.429 62.9133 235.876 65.9488C235.876 65.908 232.017 60.7754 224.036 62.032Z" fill="#ff8562"></path> <path d="M132.766 157.928H179.278C179.751 157.929 180.217 157.821 180.642 157.615C181.066 157.408 181.438 157.107 181.729 156.735C182.02 156.363 182.223 155.929 182.321 155.467C182.42 155.005 182.412 154.527 182.297 154.069L174.023 121.094C173.856 120.42 173.467 119.822 172.92 119.395C172.373 118.967 171.698 118.735 171.004 118.736H124.492C124.02 118.736 123.553 118.843 123.129 119.05C122.704 119.256 122.332 119.557 122.041 119.929C121.75 120.301 121.548 120.735 121.449 121.197C121.351 121.659 121.359 122.137 121.473 122.596L129.698 155.57C129.868 156.252 130.263 156.856 130.821 157.285C131.378 157.713 132.064 157.94 132.766 157.928V157.928Z" fill="#263238"></path> <path d="M209.283 157.814H177.671V155.366H207.667C208.1 155.366 208.515 155.538 208.821 155.844C209.127 156.15 209.299 156.565 209.299 156.998V157.863L209.283 157.814Z" fill="#263238"></path> <path opacity="0.3" d="M132.766 157.928H179.278C179.751 157.929 180.217 157.821 180.642 157.615C181.066 157.408 181.438 157.107 181.729 156.735C182.02 156.363 182.223 155.929 182.321 155.467C182.42 155.005 182.412 154.527 182.297 154.069L174.023 121.094C173.856 120.42 173.467 119.822 172.92 119.395C172.373 118.967 171.698 118.735 171.004 118.736H124.492C124.02 118.736 123.553 118.843 123.129 119.05C122.704 119.256 122.332 119.557 122.041 119.929C121.75 120.301 121.548 120.735 121.449 121.197C121.351 121.659 121.359 122.137 121.473 122.596L129.698 155.57C129.868 156.252 130.263 156.856 130.821 157.285C131.378 157.713 132.064 157.94 132.766 157.928V157.928Z" fill="black"></path> <path d="M130.327 157.928H176.839C177.312 157.929 177.778 157.821 178.202 157.615C178.627 157.408 178.999 157.107 179.29 156.735C179.581 156.363 179.784 155.929 179.882 155.467C179.981 155.005 179.972 154.527 179.858 154.069L171.576 121.094C171.408 120.42 171.02 119.822 170.473 119.395C169.926 118.967 169.251 118.735 168.557 118.736H122.045C121.572 118.736 121.106 118.843 120.681 119.05C120.257 119.256 119.885 119.557 119.594 119.929C119.303 120.301 119.1 120.735 119.002 121.197C118.903 121.659 118.912 122.137 119.026 122.596L127.251 155.57C127.422 156.253 127.819 156.857 128.378 157.286C128.936 157.714 129.623 157.94 130.327 157.928V157.928Z" fill="#263238"></path> <path opacity="0.2" d="M130.327 157.928H176.839C177.312 157.929 177.778 157.821 178.202 157.615C178.627 157.408 178.999 157.107 179.29 156.735C179.581 156.363 179.784 155.929 179.882 155.467C179.981 155.005 179.972 154.527 179.858 154.069L171.576 121.094C171.408 120.42 171.02 119.822 170.473 119.395C169.926 118.967 169.251 118.735 168.557 118.736H122.045C121.572 118.736 121.106 118.843 120.681 119.05C120.257 119.256 119.885 119.557 119.594 119.929C119.303 120.301 119.1 120.735 119.002 121.197C118.903 121.659 118.912 122.137 119.026 122.596L127.251 155.57C127.422 156.253 127.819 156.857 128.378 157.286C128.936 157.714 129.623 157.94 130.327 157.928V157.928Z" fill="white"></path> <path opacity="0.3" d="M151.511 137.365C152.155 140.115 150.858 142.783 148.606 143.314C146.353 143.844 143.987 142.049 143.334 139.299C142.681 136.549 143.987 133.881 146.239 133.35C148.491 132.82 150.858 134.656 151.511 137.365Z" fill="black"></path> <path d="M119.041 160.793L101.881 267.215H98.0781L115.337 160.189L119.041 160.793Z" fill="#ff8562"></path> <path opacity="0.5" d="M119.041 160.793L101.881 267.215H98.0781L115.337 160.189L119.041 160.793Z" fill="white"></path> <path d="M144.288 267.215H140.478L123.896 160.784L127.609 160.205L144.288 267.215Z" fill="#ff8562"></path> <path opacity="0.5" d="M144.288 267.215H140.478L123.896 160.784L127.609 160.205L144.288 267.215Z" fill="white"></path> <path d="M183.881 160.793L166.721 267.215H162.91L180.169 160.189L183.881 160.793Z" fill="#ff8562"></path> <path opacity="0.5" d="M183.881 160.793L166.721 267.215H162.91L180.169 160.189L183.881 160.793Z" fill="white"></path> <path d="M241.156 267.215H237.353L220.764 160.784L224.476 160.205L241.156 267.215Z" fill="#ff8562"></path> <path opacity="0.5" d="M241.156 267.215H237.353L220.764 160.784L224.476 160.205L241.156 267.215Z" fill="white"></path> <path d="M245.832 157.161H88.1396V162.115H245.832V157.161Z" fill="#ff8562"></path> <path opacity="0.3" d="M245.905 157.161H182.347V162.115H245.905V157.161Z" fill="black"></path> <path d="M240.177 157.161H214.13C214.13 156.776 214.283 156.407 214.555 156.134C214.828 155.862 215.197 155.709 215.582 155.709H238.716C239.102 155.709 239.472 155.862 239.746 156.134C240.02 156.406 240.174 156.775 240.177 157.161V157.161Z" fill="#263238"></path> <path d="M230.719 143.281L227.21 151.702C226.565 151.572 225.986 151.482 225.578 151.425L229.234 142.653C229.317 142.453 229.477 142.294 229.677 142.211C229.877 142.128 230.103 142.129 230.303 142.212C230.503 142.295 230.662 142.455 230.744 142.655C230.827 142.856 230.827 143.081 230.743 143.281H230.719Z" fill="#263238"></path> <path d="M233.2 136.688C237.707 136.688 241.36 132.457 241.36 127.239C241.36 122.02 237.707 117.789 233.2 117.789C228.693 117.789 225.04 122.02 225.04 127.239C225.04 132.457 228.693 136.688 233.2 136.688Z" fill="#263238"></path> <path d="M251.241 124.334L250.687 122.367L263.179 116.141L263.604 118.499L251.241 124.334Z" fill="#263238"></path> <path opacity="0.1" d="M250.687 122.367L246.9 116.696L252.914 130.747L250.687 122.367Z" fill="black"></path> <path d="M216.676 128.805L216.333 126.675L211.037 124.66V126.675L216.676 128.805Z" fill="#263238"></path> <path opacity="0.1" d="M216.676 128.805C216.57 128.397 215.272 119.495 215.272 119.495V128.275L216.676 128.805Z" fill="black"></path> <path d="M227.227 101.967C227.227 101.967 223.653 109.947 232.074 109.695C240.495 109.442 242.617 103.224 243.041 98.5969L240.414 97.6912C240.414 97.6912 238.896 104.219 233.2 105.517C227.504 106.814 227.978 100.874 227.978 100.874L227.227 101.967Z" fill="#263238"></path> <path opacity="0.1" d="M179.377 262.025L188.263 264.114L188.769 261.887L179.891 260.067L179.377 262.025Z" fill="black"></path> </g> <defs> <clipPath id="clip0"> <rect width="316" height="287" fill="white" transform="translate(25)"></rect> </clipPath> </defs> </svg> 