<?xml version="1.0" encoding="UTF-8"?> <svg xmlns="http://www.w3.org/2000/svg" width="60" height="60" viewBox="0 0 60 60" fill="none"> <g clip-path="url(#clip0)"> <path d="M59.1212 40.8871C59.6066 40.8871 60 40.4937 60 40.0083V3.39204C60 1.93094 58.8114 0.74231 57.3503 0.74231H2.64973C1.18863 0.74231 0 1.93094 0 3.39204V56.6109C0 58.0704 1.18734 59.2578 2.64703 59.2578H57.353C58.8127 59.2578 60 58.0704 60 56.6109V44.1191C60 43.6339 59.6066 43.2404 59.1212 43.2404C58.6358 43.2404 58.2424 43.6339 58.2424 44.1191V56.6109C58.2424 57.1013 57.8434 57.5002 57.353 57.5002H2.64703C2.1566 57.5002 1.75758 57.1012 1.75758 56.6109V10.4422H58.2424V40.0083C58.2424 40.4936 58.6358 40.8871 59.1212 40.8871V40.8871ZM9.69375 8.67825H1.75758V3.39204C1.75758 2.90008 2.15789 2.49989 2.64973 2.49989H9.69375V8.67825ZM11.4513 8.67825V2.49989H57.3502C57.8421 2.49989 58.2423 2.90008 58.2423 3.39204V8.67825H11.4513Z" fill="#0B3B57"></path> <path d="M52.6334 48.1276H7.36621C6.8807 48.1276 6.4873 48.5211 6.4873 49.0065C6.4873 49.4919 6.8807 49.8854 7.36621 49.8854H52.6334C53.1189 49.8854 53.5123 49.4919 53.5123 49.0065C53.5123 48.5211 53.1188 48.1276 52.6334 48.1276Z" fill="#0B3B57"></path> <path d="M52.6334 51.6432H7.36621C6.8807 51.6432 6.4873 52.0368 6.4873 52.5222C6.4873 53.0075 6.8807 53.4011 7.36621 53.4011H52.6334C53.1189 53.4011 53.5123 53.0075 53.5123 52.5222C53.5123 52.0368 53.1188 51.6432 52.6334 51.6432Z" fill="#0B3B57"></path> <path d="M8.1807 28.8462H21.6256C22.5529 28.8462 23.3179 28.0836 23.3179 27.1539V16.2296C23.3179 15.313 22.5434 14.5373 21.6256 14.5373H18.8696C18.3841 14.5373 17.9907 14.9308 17.9907 15.4162C17.9907 15.9016 18.3841 16.2951 18.8696 16.2951H20.0101L14.903 20.5481L9.79602 16.2951H14.7386C15.2241 16.2951 15.6175 15.9016 15.6175 15.4162C15.6175 14.9308 15.2241 14.5373 14.7386 14.5373H8.1807C7.86172 14.5373 7.56418 14.6276 7.3093 14.7816C6.77996 14.9667 6.48828 15.7109 6.48828 16.2297V27.1541C6.48828 28.1002 7.22316 28.8462 8.1807 28.8462V28.8462ZM21.5601 17.2918V26.0916L16.2766 21.6917L21.5601 17.2918ZM20.0101 27.0884H9.79602L14.903 22.8355L20.0101 27.0884ZM8.24598 17.2918L13.5295 21.6917L8.24598 26.0916V17.2918Z" fill="#0B3B57"></path> <path d="M8.17984 45.7546H21.6248C22.5654 45.7546 23.3171 45.0081 23.3171 44.0622C23.3171 44.0621 23.3171 33.1379 23.3171 33.1379C23.3171 32.2267 22.5364 31.4454 21.6246 31.4454C21.606 31.4454 8.17984 31.4454 8.17984 31.4454C7.62812 31.4454 7.08144 31.7196 6.75941 32.1759C6.56031 32.4579 6.4873 32.7967 6.4873 33.1379V44.0621C6.4873 45.0085 7.22125 45.7546 8.17984 45.7546V45.7546ZM9.79504 43.9968L14.9022 39.7438L20.0093 43.9968H9.79504ZM21.5593 43L16.2757 38.6001L21.5593 34.2002V43ZM20.0093 33.2032L14.9022 37.4562L9.79504 33.2032H20.0093ZM8.24512 34.2002L13.5286 38.6001L8.24512 43V34.2002Z" fill="#0B3B57"></path> <path d="M52.9688 15.0026C52.6625 14.715 52.2549 14.5363 51.8203 14.5363C51.7719 14.5363 28.955 14.5363 28.9548 14.5363C28.015 14.5363 27.2627 15.2969 27.2627 16.2285V44.0622C27.2627 44.9822 28.0365 45.7544 28.9548 45.7544H51.8204C52.2308 45.7544 52.6074 45.6073 52.9007 45.3634C52.9021 45.3622 52.9037 45.3615 52.9051 45.3605C53.2743 45.0532 53.5127 44.5606 53.5127 44.0623V16.2285C53.5126 15.7517 53.2999 15.3135 52.9688 15.0026V15.0026ZM50.6448 16.2941L40.3875 28.7619L30.1302 16.2941H50.6448ZM29.0204 17.7121L39.2493 30.1453L29.0204 42.5786V17.7121ZM30.1302 43.9965L40.3875 31.5287L50.6448 43.9965H30.1302ZM51.7548 42.5787L41.5257 30.1453L51.7548 17.712V42.5787Z" fill="#0B3B57"></path> </g> <defs> <clipPath id="clip0"> <rect width="60" height="60" fill="white"></rect> </clipPath> </defs> </svg> 