<?xml version="1.0" encoding="UTF-8"?> <svg xmlns="http://www.w3.org/2000/svg" width="70" height="70" viewBox="0 0 70 70" fill="none"> <path d="M41.5108 15.4667C42.0777 15.4667 42.5372 15.0072 42.5372 14.4403C42.5372 13.8735 42.0777 13.414 41.5108 13.414H32.7841C32.2172 13.414 31.7577 13.8735 31.7577 14.4403V33.9736H25.0835V30.9932C25.0835 29.2641 23.6767 27.8572 21.9476 27.8572H3.13592C1.40684 27.8574 0 29.2641 0 30.9932V39.0067C0 40.7357 1.40684 42.1426 3.13592 42.1426H5.03111C5.59795 42.1426 6.05746 41.6831 6.05746 41.1162C6.05746 40.5494 5.59809 40.0899 5.03111 40.0899H3.13592C2.53859 40.0899 2.0527 39.604 2.0527 39.0067V30.9932C2.0527 30.3958 2.53859 29.9099 3.13592 29.9099H21.9476C22.5449 29.9099 23.0308 30.3958 23.0308 30.9932V39.0067C23.0308 39.604 22.5449 40.0899 21.9476 40.0899H9.77512C9.20828 40.0899 8.74877 40.5494 8.74877 41.1162C8.74877 41.6831 9.20814 42.1426 9.77512 42.1426H21.9476C23.6767 42.1426 25.0835 40.7359 25.0835 39.0067V36.0262H31.7577V55.5595C31.7577 56.1263 32.2172 56.5858 32.7841 56.5858H41.5108C42.0777 56.5858 42.5372 56.1263 42.5372 55.5595C42.5372 54.9926 42.0777 54.5331 41.5108 54.5331H33.8104V36.0263H41.5108C42.0777 36.0263 42.5372 35.5668 42.5372 35C42.5372 34.4331 42.0777 33.9736 41.5108 33.9736H33.8104V15.4667H41.5108Z" fill="#0B3B57"></path> <path d="M16.6471 34.2359C17.214 34.2359 17.6735 33.7764 17.6735 33.2096C17.6735 32.6427 17.2141 32.1832 16.6471 32.1832H8.4365C7.86967 32.1832 7.41016 32.6427 7.41016 33.2096C7.41016 33.7764 7.86967 34.2359 8.4365 34.2359H16.6471Z" fill="#0B3B57"></path> <path d="M4.46777 37.2119C4.46777 37.7787 4.92729 38.2382 5.49412 38.2382H19.589C20.1558 38.2382 20.6153 37.7787 20.6153 37.2119C20.6153 36.6451 20.156 36.1855 19.589 36.1855H5.49412C4.92729 36.1855 4.46777 36.6451 4.46777 37.2119V37.2119Z" fill="#0B3B57"></path> <path d="M66.8636 7.29773H48.0519C46.3228 7.29773 44.916 8.70443 44.916 10.4336V18.4473C44.916 20.1764 46.3228 21.5832 48.0519 21.5832H66.8636C68.5927 21.5832 69.9995 20.1765 69.9995 18.4473V10.4336C69.9995 8.70457 68.5927 7.29773 66.8636 7.29773ZM67.9468 18.4473C67.9468 19.0446 67.4609 19.5305 66.8636 19.5305H48.0519C47.4546 19.5305 46.9687 19.0446 46.9687 18.4473V10.4336C46.9687 9.83632 47.4546 9.35042 48.0519 9.35042H66.8636C67.4609 9.35042 67.9468 9.83632 67.9468 10.4336V18.4473Z" fill="#0B3B57"></path> <path d="M66.8636 27.8574H55.1385C54.5716 27.8574 54.1121 28.3169 54.1121 28.8837C54.1121 29.4505 54.5716 29.9101 55.1385 29.9101H66.8636C67.4609 29.9101 67.9468 30.396 67.9468 30.9933V39.0068C67.9468 39.6041 67.4609 40.09 66.8636 40.09H48.0519C47.4546 40.09 46.9687 39.6041 46.9687 39.0068V30.9933C46.9687 30.396 47.4546 29.9101 48.0519 29.9101H50.4103C50.9772 29.9101 51.4367 29.4505 51.4367 28.8837C51.4367 28.3169 50.9772 27.8574 50.4103 27.8574H48.0519C46.3228 27.8574 44.916 29.2641 44.916 30.9933V39.0068C44.916 40.7358 46.3228 42.1427 48.0519 42.1427H66.8636C68.5927 42.1427 69.9995 40.736 69.9995 39.0068V30.9933C69.9995 29.2641 68.5927 27.8574 66.8636 27.8574Z" fill="#0B3B57"></path> <path d="M66.8636 48.4169H48.0519C46.3228 48.4169 44.916 49.8236 44.916 51.5528V59.5664C44.916 61.2955 46.3228 62.7023 48.0519 62.7023H66.8636C68.5927 62.7023 69.9995 61.2956 69.9995 59.5664V51.5528C69.9995 49.8236 68.5927 48.4169 66.8636 48.4169ZM67.9468 59.5663C67.9468 60.1636 67.4609 60.6495 66.8636 60.6495H48.0519C47.4546 60.6495 46.9687 60.1636 46.9687 59.5663V51.5527C46.9687 50.9553 47.4546 50.4694 48.0519 50.4694H66.8636C67.4609 50.4694 67.9468 50.9553 67.9468 51.5527V59.5663Z" fill="#0B3B57"></path> <path d="M61.5632 34.0251C62.13 34.0251 62.5895 33.5656 62.5895 32.9988C62.5895 32.4319 62.13 31.9724 61.5632 31.9724H53.3525C52.7857 31.9724 52.3262 32.4319 52.3262 32.9988C52.3262 33.5656 52.7857 34.0251 53.3525 34.0251H61.5632Z" fill="#0B3B57"></path> <path d="M49.3848 37.0011C49.3848 37.5679 49.8443 38.0274 50.4111 38.0274H64.506C65.0728 38.0274 65.5323 37.5679 65.5323 37.0011C65.5323 36.4342 65.0728 35.9747 64.506 35.9747H50.411C49.8441 35.9747 49.3848 36.4342 49.3848 37.0011Z" fill="#0B3B57"></path> <path d="M53.3525 13.4657H61.5632C62.13 13.4657 62.5895 13.0061 62.5895 12.4393C62.5895 11.8725 62.13 11.413 61.5632 11.413H53.3525C52.7857 11.413 52.3262 11.8725 52.3262 12.4393C52.3262 13.0061 52.7857 13.4657 53.3525 13.4657Z" fill="#0B3B57"></path> <path d="M64.5061 15.4152H50.4111C49.8443 15.4152 49.3848 15.8747 49.3848 16.4416C49.3848 17.0084 49.8443 17.4679 50.4111 17.4679H64.506C65.0728 17.4679 65.5323 17.0084 65.5323 16.4416C65.5325 15.8747 65.073 15.4152 64.5061 15.4152Z" fill="#0B3B57"></path> <path d="M53.3525 54.5846H61.5632C62.13 54.5846 62.5895 54.1251 62.5895 53.5583C62.5895 52.9914 62.13 52.5319 61.5632 52.5319H53.3525C52.7857 52.5319 52.3262 52.9914 52.3262 53.5583C52.3262 54.1251 52.7857 54.5846 53.3525 54.5846Z" fill="#0B3B57"></path> <path d="M64.5061 56.5342H50.4111C49.8443 56.5342 49.3848 56.9938 49.3848 57.5606C49.3848 58.1274 49.8443 58.5869 50.4111 58.5869H64.506C65.0728 58.5869 65.5323 58.1274 65.5323 57.5606C65.5325 56.9938 65.073 56.5342 64.5061 56.5342Z" fill="#0B3B57"></path> </svg> 